<svg version="1.1" id="Layer_1" xmlns="http://www.w3.org/2000/svg" xmlns:xlink="http://www.w3.org/1999/xlink" x="0px" y="0px"
	 width="100%" viewBox="0 0 952 454" enable-background="new 0 0 952 454" xml:space="preserve">
<path fill="#FDFFFF" opacity="1.000000" stroke="none" 
	d="
M737.000000,455.000000 
	C492.833344,455.000000 249.166672,454.989960 5.500040,455.093384 
	C1.750819,455.095001 0.903190,454.249390 0.905983,450.499939 
	C1.016475,302.166656 1.016475,153.833313 0.905983,5.500070 
	C0.903190,1.750611 1.750887,0.905651 5.500030,0.906855 
	C319.833344,1.007807 634.166687,1.007807 948.500000,0.906855 
	C952.249084,0.905651 953.096863,1.750611 953.094055,5.500070 
	C952.983582,153.833313 952.983582,302.166656 953.094055,450.499939 
	C953.096863,454.249390 952.250122,455.102692 948.499817,455.095734 
	C878.166748,454.965576 807.833313,455.000000 737.000000,455.000000 
z"/>
<path fill="#17F8F7" opacity="1.000000" stroke="none" 
	d="
M719.482056,305.076904 
	C719.447998,294.662476 719.557068,284.730286 719.380554,274.803162 
	C719.298889,270.212067 720.362244,267.955566 725.752808,267.873138 
	C736.376099,267.710602 746.992249,268.600464 757.631226,267.775879 
	C761.739502,267.457489 762.734131,270.949402 762.239014,274.453644 
	C761.746399,277.939941 761.743103,280.725891 766.210938,281.477386 
	C769.503723,282.031250 768.653320,285.009979 768.737244,287.178925 
	C768.881775,290.914764 767.772400,295.121002 773.742981,295.474121 
	C775.524719,295.579468 775.557251,297.597107 775.557678,299.123169 
	C775.560730,309.922546 775.601379,320.722321 775.514160,331.521027 
	C775.493469,334.087585 775.071533,336.560974 771.490173,336.610596 
	C768.118469,336.657288 768.810852,339.340607 768.759277,341.398010 
	C768.663696,345.210327 769.970703,349.400391 763.917053,350.427856 
	C761.209473,350.887390 761.739563,354.279175 761.952515,356.517059 
	C762.415771,361.386749 760.658813,363.396149 755.537903,363.241119 
	C745.066528,362.924133 734.579712,363.026154 724.100464,363.106812 
	C720.996582,363.130737 719.417358,362.077332 719.432617,358.837097 
	C719.485901,347.544373 719.478088,336.251373 719.491455,324.958466 
	C719.499084,318.492706 719.502808,312.026978 719.482056,305.076904 
z"/>
<path fill="#17F8F7" opacity="1.000000" stroke="none" 
	d="
M436.620239,348.170959 
	C431.211670,349.654297 429.889832,353.109253 430.612640,357.956238 
	C431.203796,361.920380 429.201660,363.182068 425.401459,363.130280 
	C414.746460,362.985168 404.084717,362.947021 393.432526,363.180267 
	C389.456238,363.267334 388.119690,361.739075 388.087067,357.972473 
	C388.055389,354.317017 389.692566,349.692841 383.122009,349.254852 
	C381.050537,349.116730 381.292786,346.026855 381.294067,344.051025 
	C381.307007,323.906952 381.351044,303.762878 381.369080,283.618805 
	C381.372345,279.955933 381.272156,276.292999 381.266174,272.630066 
	C381.261230,269.621552 382.610535,268.247314 385.818146,268.071594 
	C396.853271,267.467072 396.730438,267.365234 396.696350,278.568817 
	C396.630524,300.211517 396.817871,321.855469 396.643005,343.496857 
	C396.607086,347.942657 398.156250,349.437805 402.426270,349.222687 
	C407.243347,348.980042 412.082275,349.121704 416.910858,349.172974 
	C420.356964,349.209564 422.153137,347.849884 422.125702,344.148712 
	C421.951874,320.692413 421.914032,297.235016 421.694702,273.779236 
	C421.657349,269.785126 423.015381,268.058136 427.164459,268.022217 
	C437.297272,267.934509 437.119415,267.807098 437.056915,277.888580 
	C436.929962,298.361877 437.022339,318.836487 437.001923,339.310577 
	C436.999115,342.133667 436.868774,344.956635 436.620239,348.170959 
z"/>
<path fill="#16F8F7" opacity="1.000000" stroke="none" 
	d="
M657.160767,321.005188 
	C657.421509,315.895081 655.539551,310.943726 659.940918,306.966888 
	C660.879883,306.118530 660.159729,303.463745 660.253845,301.643738 
	C660.403870,298.743225 659.755188,295.602264 663.948425,294.549255 
	C665.884888,294.062958 665.319214,291.806000 665.274231,290.166382 
	C665.182739,286.831024 665.057739,283.604309 667.784302,280.884949 
	C669.554871,279.119110 669.163574,276.443237 668.835144,274.174835 
	C668.146912,269.422699 670.277100,267.785919 674.732727,267.992249 
	C678.224670,268.153961 681.753845,268.309814 685.222168,267.989258 
	C689.835022,267.562897 691.177856,269.824799 690.897949,273.871124 
	C690.435669,280.556274 695.289795,286.152313 694.718506,292.927765 
	C694.521057,295.269836 698.886047,294.787567 698.652039,296.837189 
	C697.875610,303.637970 702.484070,309.125977 702.742676,315.571930 
	C702.922668,320.058228 702.909729,324.561523 702.750183,329.048950 
	C702.644470,332.024994 702.624634,334.691650 705.932922,336.130066 
	C707.505554,336.813782 707.665955,338.477509 707.675598,340.010681 
	C707.713379,346.005157 707.716431,351.999847 707.735046,357.994476 
	C707.746460,361.685577 706.179016,363.191681 702.237000,363.170288 
	C692.153137,363.115448 691.872864,362.811005 692.723999,352.397095 
	C693.073975,348.115082 692.520874,343.761932 692.430969,339.440063 
	C692.387878,337.370422 691.131348,336.029694 689.363220,336.247162 
	C683.208069,337.004150 677.078857,335.505768 670.919556,336.356689 
	C667.987976,336.761749 666.915039,337.962036 666.992188,340.857635 
	C667.142883,346.516968 666.926086,352.187103 667.119385,357.843933 
	C667.247620,361.596436 666.064575,363.187439 662.003967,363.173401 
	C651.672852,363.137634 651.707153,363.313019 652.047791,352.832153 
	C652.155762,349.507324 651.984802,346.174408 652.011536,342.845734 
	C652.036316,339.756104 651.395752,336.496704 655.485291,334.966705 
	C657.108337,334.359558 657.003906,332.176514 657.028198,330.488922 
	C657.071350,327.490662 657.130005,324.492645 657.160767,321.005188 
z"/>
<path fill="#18F8F7" opacity="1.000000" stroke="none" 
	d="
M449.176483,287.001801 
	C449.181152,281.845123 449.285522,277.183899 449.123779,272.531921 
	C449.013336,269.356293 450.476624,267.890961 453.466187,267.779022 
	C456.270142,267.673981 459.079498,267.697449 461.886505,267.692322 
	C471.849457,267.674133 481.814240,267.779266 491.774567,267.611664 
	C497.031677,267.523193 498.871429,270.294769 498.484131,274.952057 
	C498.199310,278.376740 498.731415,280.808685 502.664581,281.490540 
	C504.755768,281.853088 504.830536,283.814087 504.848633,285.483398 
	C504.918945,291.970215 504.953857,298.458008 504.921692,304.945038 
	C504.911530,306.998871 504.633759,309.148346 501.947327,309.350128 
	C498.713745,309.593018 498.458435,311.629852 498.453735,314.218597 
	C498.438171,322.771332 498.383270,322.776215 489.826630,322.775208 
	C483.337738,322.774414 476.841034,322.948761 470.362701,322.682709 
	C466.094879,322.507416 464.410553,323.892456 464.528839,328.354401 
	C464.788849,338.161102 464.447388,347.983246 464.677704,357.791473 
	C464.769531,361.701965 463.411102,363.385437 459.554871,363.141327 
	C458.902618,363.100037 458.236725,363.347961 457.576141,363.353943 
	C449.074738,363.431000 449.132935,363.426117 449.146362,354.863800 
	C449.181580,332.409637 449.161072,309.955414 449.176483,287.001801 
z"/>
<path fill="#17F8F7" opacity="1.000000" stroke="none" 
	d="
M213.897919,289.343750 
	C213.875351,311.096344 213.856415,332.381958 213.843521,353.667542 
	C213.842514,355.331696 213.874084,356.996063 213.907379,358.660004 
	C213.969254,361.752197 212.573135,363.020935 209.376968,363.147064 
	C198.698227,363.568573 198.929565,363.667114 198.896896,352.794434 
	C198.830933,330.838959 199.424500,308.881287 198.625534,286.924896 
	C198.477753,282.863617 196.762695,281.789368 193.081924,281.913208 
	C189.617889,282.029785 186.203568,282.676025 182.651520,282.182190 
	C179.726532,281.775574 178.448853,280.676361 178.468597,277.837982 
	C178.482483,275.842651 178.366913,273.844025 178.445786,271.852234 
	C178.548233,269.265808 179.853302,268.015228 182.580276,268.025177 
	C198.225204,268.082214 213.870651,268.101318 229.515442,268.030121 
	C234.526947,268.007324 234.515686,271.403534 234.495544,274.853851 
	C234.474701,278.424408 234.665619,282.202545 229.319153,282.001740 
	C226.659317,281.901825 223.993362,281.962006 221.330154,281.956116 
	C214.646896,281.941406 214.646896,281.942871 213.897919,289.343750 
z"/>
<path fill="#16F8F7" opacity="1.000000" stroke="none" 
	d="
M538.644714,308.999756 
	C538.699707,320.978790 538.876465,332.458923 538.737366,343.935211 
	C538.690674,347.793182 539.907654,349.340668 543.881836,349.224518 
	C551.697571,348.996063 559.524353,349.047394 567.345215,349.123230 
	C572.383301,349.172058 572.946411,350.512329 572.698242,358.387268 
	C572.560791,362.747070 570.462708,363.374756 566.575012,363.280396 
	C554.101562,362.977570 541.614624,362.954681 529.138855,363.170349 
	C524.513794,363.250275 523.149231,361.661987 523.181458,357.086792 
	C523.376221,329.467926 523.358337,301.846893 523.249084,274.227234 
	C523.231567,269.799591 524.608826,267.959259 529.279968,268.023926 
	C538.976929,268.158203 538.873535,267.954559 538.735229,277.552612 
	C538.586487,287.866486 538.664246,298.183624 538.644714,308.999756 
z"/>
<path fill="#5CE9E7" opacity="1.000000" stroke="none" 
	d="
M839.451294,156.977295 
	C838.443237,154.886749 837.535889,153.116440 836.405273,151.103088 
	C834.361694,149.555115 833.852844,147.569824 833.187378,145.296631 
	C832.950867,145.050171 832.986267,144.996002 832.962891,145.020630 
	C831.649597,143.601028 830.307007,142.205978 829.286499,140.535660 
	C828.349609,139.002228 827.219238,137.938766 825.168640,139.730988 
	C824.906799,139.939743 824.759521,140.298309 824.722595,140.488586 
	C823.204773,146.367493 824.346008,152.160858 824.003296,157.895523 
	C823.856079,160.358185 824.248230,162.844788 823.505615,165.711945 
	C823.051514,166.660965 822.778931,167.188980 822.261597,167.888885 
	C816.662720,169.861465 811.211426,168.923141 805.352783,168.414917 
	C804.203918,168.135193 803.485535,168.077484 802.408447,167.984619 
	C801.576233,167.587799 801.225708,167.138702 801.028564,166.268982 
	C801.007446,158.643845 801.017334,151.308014 800.991333,143.507416 
	C800.600708,142.628418 800.458496,142.150940 800.719238,141.271988 
	C800.949890,130.610123 800.990051,120.286438 801.003479,109.496635 
	C800.609497,108.625977 800.466248,108.153542 800.757690,107.288857 
	C800.989990,105.271378 801.011963,103.578171 800.994019,101.463295 
	C800.599670,100.628006 800.461304,100.151657 800.742004,99.282799 
	C800.963928,95.949921 800.983215,92.946739 800.975708,89.494247 
	C800.179199,88.019684 799.932251,86.921005 800.722290,85.337158 
	C800.977112,82.609924 800.990173,80.256142 801.000488,77.461090 
	C801.028503,76.411659 801.233948,75.874779 801.900024,75.269241 
	C802.555115,75.084587 802.959229,75.054161 803.665649,74.991577 
	C806.637451,73.410164 809.455200,73.961922 812.684631,74.592300 
	C814.117188,74.840530 815.128235,74.871101 816.516724,74.858627 
	C817.657227,74.361511 818.458008,74.140495 819.726196,74.601471 
	C823.640686,74.975189 823.780762,77.441422 823.769775,80.108536 
	C823.736328,88.211212 823.757568,96.314110 823.757568,104.959862 
	C829.319092,102.810822 830.162231,97.725494 832.627563,94.071068 
	C836.152344,88.846123 839.131409,83.255203 842.410950,77.861588 
	C843.914001,75.389481 846.191345,74.261360 849.123962,74.293610 
	C854.622314,74.354073 860.123230,74.235466 865.620300,74.339729 
	C869.930542,74.421478 871.067688,76.436127 868.642395,80.013031 
	C861.660339,90.310432 854.639587,100.586220 847.397583,110.701180 
	C841.998596,118.241943 842.102417,117.975555 846.693542,126.216125 
	C850.962341,133.878052 856.972656,140.445404 860.705688,148.793289 
	C861.544983,149.548584 862.077454,150.119446 862.657227,151.005951 
	C862.743652,151.285706 862.835266,151.650391 862.908752,151.823456 
	C866.306030,156.542236 870.768127,160.379288 871.835327,166.651962 
	C871.709778,167.300903 871.552063,167.542328 871.125488,167.846436 
	C870.131165,168.646408 869.188965,168.896774 867.803955,168.726410 
	C867.173584,168.471832 866.956238,168.256012 866.756653,168.021622 
	C866.218018,167.389221 866.590576,166.525009 866.189880,165.861542 
	C865.835144,166.507965 865.839722,167.298920 865.382019,167.900864 
	C865.092163,168.282074 864.700012,168.543961 863.890991,168.836853 
	C858.250000,168.809036 852.967346,169.528442 847.367065,168.246521 
	C846.862488,167.694183 846.661133,167.450089 846.195923,167.129791 
	C845.199463,166.312958 844.846008,165.345734 844.205444,164.200500 
	C843.916138,163.653137 843.737427,163.400192 843.293640,163.067841 
	C841.388062,161.390503 840.509094,159.319489 839.451294,156.977295 
z"/>
<path fill="#5CE9E7" opacity="1.000000" stroke="none" 
	d="
M588.028870,96.708878 
	C580.533936,103.178772 579.164856,111.785217 579.091553,120.460510 
	C579.027344,128.056961 580.068726,135.585403 584.289795,142.461121 
	C587.245850,147.276306 591.551025,148.847366 596.414124,148.843552 
	C600.383057,148.840439 603.426208,146.239105 605.472229,142.660538 
	C609.621460,135.403137 609.674377,135.396713 617.213928,138.537918 
	C619.660095,139.557083 621.929749,141.095200 624.445435,141.830353 
	C628.417786,142.991150 628.254944,145.341309 626.973328,148.355270 
	C617.259033,171.200684 593.712463,174.965164 575.354797,164.964111 
	C568.912781,161.454605 564.105164,155.277512 561.066895,148.167679 
	C552.245911,127.526146 552.793884,107.464920 565.154358,88.383904 
	C576.220154,71.301468 598.791321,69.346985 613.333252,77.822205 
	C619.788391,81.584328 624.320740,87.938431 627.434875,94.915665 
	C628.316711,96.891510 627.862061,98.865524 625.524292,99.887032 
	C624.012268,100.547714 622.501099,101.220955 621.039062,101.983521 
	C611.590271,106.911667 611.069946,106.812096 604.349365,98.535500 
	C600.915405,94.306480 594.629150,93.513565 588.028870,96.708878 
z"/>
<path fill="#5CE9E7" opacity="1.000000" stroke="none" 
	d="
M761.212280,94.707062 
	C753.437439,95.826622 749.760437,101.361282 748.365234,107.465782 
	C745.683777,119.198608 744.543457,131.144257 751.703552,142.166290 
	C757.902771,151.709213 768.270752,150.635727 773.307556,142.119522 
	C777.320557,135.334290 777.413757,135.309921 784.581665,138.328201 
	C786.100708,138.967834 787.455627,139.987503 788.951843,140.692566 
	C796.062805,144.043594 796.216797,145.614532 791.828430,152.551926 
	C788.003784,158.598312 783.640381,163.938705 777.046448,166.874588 
	C761.950684,173.595917 742.240173,169.617615 731.670776,154.133041 
	C719.087158,135.697540 719.203979,100.701485 736.541809,83.214218 
	C748.529602,71.123070 776.556519,67.117424 790.375793,87.407532 
	C796.827026,96.879555 796.480713,98.727264 785.920349,103.155396 
	C784.695740,103.668922 783.349609,103.946877 782.208801,104.595963 
	C778.627319,106.633713 775.952454,106.072472 774.060547,102.240135 
	C771.533508,97.121338 767.316833,94.667656 761.212280,94.707062 
z"/>
<path fill="#56E7E5" opacity="1.000000" stroke="none" 
	d="
M300.827515,75.433990 
	C301.546356,75.045830 301.952423,75.013908 302.653839,74.902519 
	C304.641663,73.801094 306.426941,73.880112 308.650024,74.593796 
	C312.994904,74.904472 316.937164,74.998070 321.327698,75.112076 
	C323.676544,76.761261 323.472443,79.000557 323.474823,81.151474 
	C323.495514,99.811966 323.544006,118.472763 323.451630,137.132843 
	C323.421417,143.237228 321.502197,148.904297 318.286621,154.611359 
	C317.984558,154.982956 318.000000,154.999390 317.991089,154.993607 
	C314.274231,163.387283 307.021057,167.023834 298.707428,168.931030 
	C290.395996,170.837708 282.027618,171.147202 273.774292,168.353134 
	C271.878418,167.711319 270.064392,166.952423 268.322998,165.224442 
	C265.104370,162.549164 261.930878,160.434494 259.408325,157.117752 
	C254.996552,153.097244 253.848022,147.978363 253.028030,142.722229 
	C251.673615,134.040604 252.010300,125.290459 252.021637,116.556839 
	C252.025452,113.616966 251.148209,110.626328 252.651581,107.349594 
	C252.927338,105.266243 252.967346,103.573662 252.953354,101.460724 
	C251.911835,99.701180 251.644318,98.276657 252.629715,96.342392 
	C252.900009,91.291405 252.929337,86.630234 252.885864,81.511787 
	C251.745529,79.081978 252.758408,77.393921 253.834167,75.386841 
	C254.119705,75.098259 253.999710,75.028404 254.050049,75.076263 
	C258.305664,72.820061 262.844788,74.193214 267.212982,74.075180 
	C275.986145,73.838120 275.993774,74.006111 275.995178,82.597237 
	C275.997925,99.219589 276.013031,115.841980 275.977417,132.464249 
	C275.972015,134.982452 276.273407,137.390610 277.044861,139.806763 
	C280.091431,149.348358 288.081055,151.800995 296.734985,145.367218 
	C297.074005,145.065445 297.001221,144.999893 297.034302,145.035858 
	C299.204529,140.343018 299.830444,135.539062 299.726929,130.224640 
	C299.382416,112.540108 299.086670,94.836082 299.933716,77.148048 
	C299.958038,76.639633 300.286499,76.228661 300.827515,75.433990 
z"/>
<path fill="#3CEFED" opacity="1.000000" stroke="none" 
	d="
M268.156403,363.571014 
	C259.502258,363.585297 259.418182,363.586639 259.289703,355.528717 
	C259.239838,352.399017 258.575134,350.401489 254.858536,350.477478 
	C250.314972,350.570374 250.836914,346.809753 250.576675,344.009491 
	C250.288971,340.913910 250.957474,337.768768 247.245056,335.887268 
	C245.721588,335.115204 245.481445,332.702087 245.468597,330.893951 
	C245.392853,320.237213 245.437668,309.579620 245.439743,298.922333 
	C245.439972,297.733185 245.412384,296.202301 246.587387,295.829834 
	C251.474091,294.280731 250.345734,290.348175 250.484772,286.828583 
	C250.621536,283.366882 251.633270,280.559357 255.871475,280.475494 
	C259.248291,280.408722 259.193054,277.980652 259.255066,275.527679 
	C259.460052,267.422241 259.491821,267.420197 267.397980,267.403625 
	C272.227783,267.393524 277.057922,267.354126 281.887268,267.399536 
	C287.921112,267.456299 289.606934,268.958008 289.065308,274.766083 
	C288.723236,278.433929 289.199585,280.378113 293.440247,280.675140 
	C297.047791,280.927795 297.562286,284.134216 297.503967,287.086639 
	C297.439911,290.328339 297.412872,293.207825 300.849060,295.204620 
	C302.774170,296.323303 302.660217,298.967834 302.655670,301.171173 
	C302.636047,310.663055 302.646240,320.154938 302.622955,329.646790 
	C302.615448,332.705933 302.346039,335.470459 299.069214,337.244507 
	C296.594727,338.584167 297.665375,341.461548 297.620697,343.686920 
	C297.542847,347.563995 296.917664,350.636597 291.970276,350.624176 
	C289.023346,350.616760 288.649567,352.960388 288.793732,355.275513 
	C289.324677,363.800995 288.822968,363.436401 280.122375,363.582520 
	C276.293365,363.646851 272.462036,363.574951 268.156403,363.571014 
z"/>
<path fill="#56E7E5" opacity="1.000000" stroke="none" 
	d="
M519.634155,110.669914 
	C520.017395,110.908699 520.402771,111.051254 520.607178,111.072098 
	C523.892822,116.895782 522.692871,123.007866 521.648804,128.929352 
	C521.153870,131.736404 518.015747,131.944870 515.463867,131.969742 
	C508.670410,132.035950 501.873657,132.105057 495.083801,131.950531 
	C491.318634,131.864853 489.889221,132.790710 490.215332,137.069138 
	C491.018341,147.604462 490.747009,147.585968 501.226685,147.552414 
	C504.864899,147.540756 508.513763,147.269714 512.576538,147.840729 
	C513.751038,147.960632 514.494568,147.983444 515.605713,147.946060 
	C517.329468,146.954361 518.762451,146.848953 520.635986,147.744019 
	C521.414734,148.309265 521.822144,148.616425 522.455566,149.042633 
	C524.974915,151.254211 524.630493,153.704269 523.364136,156.635315 
	C523.043396,157.767761 522.999512,158.506622 523.015015,159.612335 
	C525.065002,166.693817 523.459473,168.989105 516.629395,168.984573 
	C501.851257,168.974762 487.072418,168.971619 472.295563,169.085129 
	C469.007660,169.110382 467.666901,168.078491 466.872040,164.844864 
	C465.803101,160.496262 466.538391,156.247467 466.529114,151.962448 
	C466.482971,130.672958 466.529175,109.383263 466.484955,88.093758 
	C466.478394,84.927269 466.927185,81.792259 466.952393,78.649307 
	C466.979828,75.219650 468.429993,73.705223 471.795380,74.021362 
	C473.923737,74.221298 476.096100,73.203423 478.617523,74.516357 
	C479.474274,74.821365 479.901184,74.877090 480.647705,74.874161 
	C482.127808,74.034103 483.451508,74.019638 484.773956,74.013664 
	C495.960022,73.963135 507.147247,74.102280 518.331726,73.818710 
	C519.348145,73.792938 520.298279,73.918343 521.558777,74.768555 
	C521.947144,75.075897 522.001953,75.011673 521.964844,75.031662 
	C523.306152,76.546722 524.424500,78.122055 523.329163,80.669098 
	C523.061401,82.727531 523.015320,84.428909 523.030396,86.552101 
	C524.533203,88.999634 524.719666,91.081955 522.987122,93.513451 
	C522.205688,94.102005 521.811035,94.410515 521.211365,94.862991 
	C517.939026,96.584999 514.584900,96.399399 511.308624,96.449059 
	C505.499756,96.537125 499.686798,96.577057 493.878235,96.470993 
	C491.113892,96.420509 489.968140,97.554436 489.972626,100.295372 
	C489.975647,102.142418 490.671417,103.913620 490.494049,105.728539 
	C490.165253,109.092300 491.794647,110.087410 494.898895,110.034164 
	C501.205902,109.925987 507.516602,109.979935 513.825500,110.016556 
	C515.638367,110.027069 517.483948,109.761703 519.634155,110.669914 
z"/>
<path fill="#5DE9E9" opacity="1.000000" stroke="none" 
	d="
M656.724731,120.000000 
	C656.724976,127.327644 656.948975,134.165115 656.648865,140.979507 
	C656.443237,145.649582 657.858032,147.670959 662.824341,147.384323 
	C668.965149,147.029877 675.142761,147.363998 681.302490,147.268433 
	C685.071289,147.209946 686.838562,148.834137 686.728271,152.653793 
	C686.617798,156.479874 686.650696,160.311676 686.693909,164.140137 
	C686.729309,167.271973 685.145874,168.773392 682.126038,168.777679 
	C667.471924,168.798431 652.817810,168.786697 638.163696,168.777176 
	C633.634949,168.774231 633.305786,165.611755 633.303772,162.238480 
	C633.292297,142.755234 633.286011,123.271996 633.279663,103.788750 
	C633.277161,96.295090 633.193298,88.800148 633.305969,81.308182 
	C633.396545,75.282066 634.411194,74.379929 640.257324,74.368240 
	C643.587463,74.361580 646.917603,74.367294 650.247681,74.350563 
	C656.054016,74.321381 656.710327,74.955093 656.721375,81.032158 
	C656.744629,93.854729 656.726318,106.677383 656.724731,120.000000 
z"/>
<path fill="#59E8E6" opacity="1.000000" stroke="none" 
	d="
M399.452179,148.735458 
	C399.188446,149.489777 399.096558,149.913452 398.996826,150.662872 
	C398.832184,153.428284 398.187439,155.677643 396.179443,157.733887 
	C395.909821,157.967346 395.750061,158.256714 395.737244,158.421478 
	C391.351135,166.741989 383.503998,168.561417 375.403809,168.846176 
	C362.942902,169.284256 350.455292,169.051941 337.978638,169.029205 
	C333.857056,169.021713 332.984497,166.689728 332.991852,163.217651 
	C333.021240,149.391144 333.006989,135.564453 333.004181,121.737823 
	C333.001526,108.744118 332.988556,95.750374 333.019440,82.756744 
	C333.024139,80.776253 332.702026,78.751320 333.796082,76.447235 
	C334.089752,76.065842 334.044830,75.991859 334.058868,76.030685 
	C334.959442,73.947189 336.774963,74.009491 338.665863,73.985832 
	C350.456390,73.838310 362.273590,73.568283 374.033813,73.853088 
	C393.623077,74.327515 402.968445,90.729485 397.395630,108.657951 
	C396.917633,110.947845 396.045349,112.569046 394.789276,114.708672 
	C394.339050,115.867477 393.814911,116.163055 393.055664,116.614449 
	C392.780457,116.724266 392.828430,116.822205 392.778412,116.800491 
	C388.897919,121.115944 394.292023,122.670265 395.446777,125.855682 
	C395.780304,126.708061 396.034698,127.232140 396.521057,127.935272 
	C397.164124,128.267410 397.566528,128.440460 398.203430,128.854889 
	C398.662262,129.448914 398.830750,129.843842 399.012756,130.568359 
	C399.221832,131.903748 399.559448,132.848999 400.414062,133.914963 
	C400.809937,134.792969 400.879517,135.423096 400.805969,136.387512 
	C400.489258,137.749283 400.327393,138.796295 400.691406,140.197052 
	C400.779938,140.998093 400.743561,141.460205 400.513550,142.251282 
	C399.585754,144.455002 400.387085,146.530609 399.452179,148.735458 
z"/>
<path fill="#59E8E6" opacity="1.000000" stroke="none" 
	d="
M133.364288,167.046173 
	C132.576874,167.110596 132.153122,167.143829 131.419708,167.255539 
	C129.582062,167.935471 128.152328,168.939804 126.458389,168.923447 
	C115.240898,168.815231 104.014313,169.507370 92.398239,168.303802 
	C91.686424,167.894272 91.427155,167.688126 91.063232,167.225342 
	C89.829430,165.575897 90.014168,163.877747 90.013344,162.233704 
	C89.999641,134.875183 89.993607,107.516655 90.020477,80.158157 
	C90.022072,78.529999 89.759735,76.797226 91.564362,75.235458 
	C92.430206,74.979027 92.861237,74.961548 93.610825,74.886360 
	C95.634377,73.797569 97.429794,73.868530 99.666016,74.612701 
	C103.059753,74.865906 106.049759,74.897453 109.485489,74.882057 
	C112.635506,73.508438 115.435364,73.919701 118.654129,74.601570 
	C121.414749,74.899895 123.759064,74.974968 126.543442,75.030106 
	C131.502975,74.788612 135.593384,76.159462 139.766220,78.604591 
	C140.418320,78.956970 140.761429,79.075928 141.373291,79.240570 
	C146.148849,81.366982 150.156845,84.036491 152.707748,88.891487 
	C153.035385,89.724281 153.247543,90.227966 153.685211,90.890625 
	C154.816284,91.643059 155.126816,92.645493 155.802505,93.765556 
	C155.991684,94.004143 156.000000,94.000305 155.997009,94.004211 
	C161.950775,104.769478 164.735916,116.040268 162.468918,128.439667 
	C161.392975,134.324524 160.416428,140.142654 158.254120,145.774261 
	C156.956421,149.153976 155.262543,152.055481 152.235016,154.672180 
	C151.614059,155.389877 151.297379,155.820587 150.918228,156.518890 
	C146.377655,162.257614 140.656219,165.646729 133.364288,167.046173 
z"/>
<path fill="#59E8E6" opacity="1.000000" stroke="none" 
	d="
M242.607864,101.043732 
	C242.754547,101.731918 242.808640,102.095535 242.938889,102.724464 
	C243.723053,103.679031 244.022095,104.560776 244.269409,105.842041 
	C244.420898,106.638809 244.519501,107.090187 244.731903,107.870850 
	C245.102936,109.567345 245.312317,110.934578 245.065155,112.672379 
	C244.750702,120.057030 245.777023,127.158737 244.015533,134.548462 
	C243.836990,135.109970 243.692032,135.257828 243.524994,135.715485 
	C243.332550,137.062408 243.162201,138.099533 242.969971,139.530853 
	C241.764389,144.386276 240.622330,148.865601 237.233978,152.740662 
	C236.081970,154.147644 235.185608,155.293381 234.144836,156.715912 
	C230.262955,164.028366 223.647308,167.187378 216.499146,168.825394 
	C205.802780,171.276505 195.184341,171.146423 185.325195,164.227661 
	C184.506699,163.392395 183.987473,162.837067 183.204498,162.162689 
	C181.894653,161.020035 180.254318,160.776077 179.288498,159.148499 
	C179.101791,158.894791 178.997620,158.994812 179.051544,158.947754 
	C177.831406,158.034393 177.006271,156.816315 176.241547,155.152802 
	C175.594025,154.012726 175.094727,153.154617 174.366425,152.106964 
	C172.818848,151.013153 172.386932,149.455429 171.369003,147.954102 
	C171.237762,147.273880 171.187073,146.909805 171.069336,146.278046 
	C169.802551,144.811157 169.200821,143.343826 169.052063,141.324768 
	C169.005844,140.554260 168.964279,140.130280 168.845520,139.395935 
	C164.688034,128.016022 163.824661,116.900558 168.482208,105.300598 
	C168.806732,104.180771 168.940903,103.469368 169.107819,102.396812 
	C170.839249,92.499580 176.812775,85.723831 184.014252,79.394455 
	C185.725113,78.643867 187.098846,78.022118 188.750916,77.235123 
	C197.394562,72.359985 206.187851,71.756691 215.704346,74.531960 
	C217.025177,74.911613 217.953949,75.090057 219.235474,75.308052 
	C224.408142,77.677750 229.849106,79.122726 232.780060,84.732155 
	C233.447205,85.611824 233.898926,86.211517 234.596283,86.957848 
	C236.626709,88.208794 237.412201,90.112007 238.611816,92.062721 
	C239.109863,93.360367 239.541718,94.332390 240.077682,95.609947 
	C241.536285,97.236588 241.879761,99.048820 242.607864,101.043732 
z"/>
<path fill="#59E8E6" opacity="1.000000" stroke="none" 
	d="
M692.380371,95.000801 
	C692.367126,89.669380 692.561096,84.825317 692.272705,80.010124 
	C692.051086,76.308182 693.820740,74.643005 697.089783,74.504669 
	C702.077087,74.293610 707.079895,74.391365 712.075134,74.445770 
	C714.724182,74.474617 715.819946,75.856583 715.814087,78.590973 
	C715.753235,106.914574 715.754578,135.238373 715.798096,163.562027 
	C715.803711,167.228867 714.658264,169.133270 710.548584,168.830200 
	C706.240051,168.512436 701.888611,168.646271 697.560913,168.764999 
	C694.749023,168.842133 693.097900,167.903046 692.923462,164.909561 
	C692.817688,163.094696 692.387024,161.289322 692.384277,159.479263 
	C692.351929,138.153076 692.372986,116.826820 692.380371,95.000801 
z"/>
<path fill="#42EDEB" opacity="1.000000" stroke="none" 
	d="
M640.725952,314.002014 
	C640.747131,319.493591 640.767761,324.486023 640.769043,329.478455 
	C640.769836,332.540894 640.591919,335.430359 637.289185,337.112854 
	C634.848083,338.356384 635.778320,340.912201 635.630615,342.975159 
	C635.355713,346.815399 635.718506,350.976715 629.838867,350.721252 
	C627.859131,350.635284 627.638245,352.342712 627.584351,353.939606 
	C627.522827,355.764191 627.468567,357.594940 627.270752,359.407684 
	C626.958679,362.266968 625.683044,363.754028 622.402832,363.645050 
	C615.919373,363.429657 609.416687,363.507050 602.931335,363.732239 
	C598.780457,363.876373 597.071045,362.044128 597.336853,358.084747 
	C597.609741,354.019745 597.580322,350.407593 591.997009,349.984772 
	C589.231140,349.775299 589.186584,347.191864 589.134277,344.934448 
	C589.057617,341.628906 589.099792,338.448792 585.685669,336.177582 
	C583.744507,334.886292 583.492065,331.761536 583.748108,329.711060 
	C585.008179,319.619995 583.551270,309.525970 584.211304,299.456268 
	C584.243958,298.958099 584.050964,298.257355 584.311279,297.990051 
	C588.253296,293.942352 588.550293,288.727692 589.187622,283.561462 
	C589.391235,281.910400 590.882324,281.210632 592.574341,281.226501 
	C596.605347,281.264313 597.430359,278.975464 597.352966,275.375641 
	C597.183044,267.468597 597.425720,267.384857 605.510071,267.402618 
	C611.002930,267.414703 616.498108,267.478790 621.988098,267.347229 
	C626.107910,267.248535 627.805481,269.002014 627.204407,273.111664 
	C626.634094,277.010590 626.790955,280.384094 632.022095,281.012848 
	C635.048584,281.376617 635.826721,283.873810 635.648804,286.660034 
	C635.423340,290.190765 635.119141,293.619171 639.323792,295.477539 
	C640.995422,296.216339 640.661926,298.361450 640.670471,300.020752 
	C640.693726,304.514740 640.702698,309.008789 640.725952,314.002014 
z"/>
<path fill="#E1FFFE" opacity="1.000000" stroke="none" 
	d="
M478.979462,74.418549 
	C467.833527,75.760750 467.917084,75.761459 467.818085,87.377411 
	C467.606598,112.193085 468.365814,137.013550 467.429779,161.825699 
	C467.271545,166.019913 468.334930,168.337952 473.593872,168.174194 
	C487.576935,167.738831 501.582977,168.060608 515.579834,168.038849 
	C522.732483,168.027740 522.732422,167.986618 522.995239,160.403473 
	C526.754028,161.946777 524.569580,164.707230 524.057983,167.242935 
	C523.537476,169.823288 521.620300,170.013138 519.493469,170.008911 
	C508.198181,169.986496 496.902618,169.971527 485.607666,170.036560 
	C483.935760,170.046173 481.832520,169.224686 480.929596,171.696793 
	C480.576111,172.664566 479.635193,172.952499 478.971100,172.249878 
	C476.421143,169.551941 473.562531,169.656799 470.296753,170.687897 
	C467.855377,171.458710 467.522461,169.300034 466.657928,167.643051 
	C465.886047,166.163574 466.956055,163.389404 464.360626,163.251907 
	C461.482025,163.099396 462.612793,166.391708 461.230835,167.645340 
	C461.110382,167.754593 460.947449,167.817047 460.127197,167.698547 
	C457.933716,164.346420 458.579346,160.976974 458.534760,157.699936 
	C458.424103,149.562668 458.438660,149.520401 450.102631,149.493530 
	C445.793457,149.479645 441.482941,149.566574 437.175598,149.445267 
	C435.218658,149.390182 433.132233,149.532791 431.889954,146.811646 
	C440.025360,145.984055 448.037933,146.289673 456.016022,145.896469 
	C460.979675,145.651810 463.052521,147.498474 463.006042,152.256927 
	C462.998444,153.037018 462.907135,153.933762 464.179535,154.489197 
	C465.551453,153.038574 464.980896,151.155304 464.984314,149.499313 
	C465.026978,128.837738 465.006073,108.176025 465.020233,87.514366 
	C465.021912,85.031105 465.126282,82.601662 465.715851,80.109436 
	C467.131165,74.126610 471.359772,71.047287 477.274170,72.357185 
	C477.915070,72.499146 478.370239,73.479828 478.979462,74.418549 
z"/>
<path fill="#D8FEFE" opacity="1.000000" stroke="none" 
	d="
M333.682129,76.121902 
	C334.084015,104.547905 334.174347,133.030624 333.980103,161.511398 
	C333.946869,166.386230 335.121002,168.414856 340.381989,168.111481 
	C353.488495,167.355698 366.633545,168.762024 379.770264,167.276627 
	C386.273621,166.541275 390.678741,162.905029 395.415375,158.725922 
	C396.568207,163.770508 392.179016,165.090729 389.058136,166.704376 
	C384.505371,169.058426 379.509521,170.273010 374.174072,170.056076 
	C367.354095,169.778793 360.388550,169.192123 353.721252,170.238754 
	C348.055786,171.128113 342.627655,169.497772 337.076874,170.362320 
	C333.436554,170.929291 332.182495,168.197632 332.051941,165.119919 
	C331.882660,161.128174 332.005341,157.123978 332.005157,153.125153 
	C332.003967,129.298721 331.977966,105.472221 332.053375,81.646042 
	C332.059174,79.814156 331.056488,77.583389 333.682129,76.121902 
z"/>
<path fill="#E1FFFE" opacity="1.000000" stroke="none" 
	d="
M409.239685,167.783875 
	C407.409271,167.391098 405.980286,166.565323 404.463409,165.959778 
	C402.767822,165.282867 402.511597,163.314209 403.182526,162.735916 
	C408.385834,158.250916 404.666046,152.839890 405.009644,147.884827 
	C405.032532,147.554337 405.015350,147.221054 405.019836,146.446259 
	C404.425842,123.905174 405.343323,101.807114 405.047485,79.708641 
	C405.043396,79.404671 405.293640,79.098351 405.715759,78.397369 
	C406.052307,76.494690 406.732391,75.456818 408.901367,75.287079 
	C410.383026,76.893837 410.536438,78.386230 410.530670,79.886627 
	C410.422760,107.967529 410.530670,136.048508 410.483948,164.129410 
	C410.483093,164.628754 410.373413,165.119476 410.177368,166.089874 
	C409.900940,166.860535 409.751648,167.154297 409.239685,167.783875 
z"/>
<path fill="#E1FFFE" opacity="1.000000" stroke="none" 
	d="
M408.945923,74.949219 
	C410.007538,71.275314 412.217255,70.097809 415.702759,71.881592 
	C419.799011,73.977943 424.187225,72.738411 428.438110,72.967911 
	C431.343506,73.124771 433.443542,73.387772 432.164673,77.234093 
	C431.181305,80.191597 433.051514,83.036522 433.035217,86.045280 
	C432.937958,103.964203 432.973450,121.883957 433.008606,139.803329 
	C433.012268,141.658615 432.797089,143.430115 432.071838,145.560883 
	C432.027374,145.973724 431.760071,146.241150 431.626526,146.375000 
	C427.531555,145.468094 428.521240,142.083344 428.498993,139.521439 
	C428.345947,121.867538 428.428955,104.212029 428.421173,86.557037 
	C428.416382,75.670616 428.730164,76.670753 418.279938,76.563034 
	C415.470795,76.534073 412.600830,76.945518 409.527069,75.452446 
	C409.155273,75.159363 409.016144,75.018837 408.945923,74.949219 
z"/>
<path fill="#D8FEFE" opacity="1.000000" stroke="none" 
	d="
M296.701660,145.071564 
	C295.415924,149.990677 290.986572,149.740448 287.208923,149.811661 
	C282.678528,149.897095 278.803558,147.961380 276.946014,143.407257 
	C275.687866,140.322617 275.045990,137.124100 275.064484,133.719681 
	C275.160126,116.128410 275.010834,98.535179 275.204803,80.945480 
	C275.252625,76.608017 274.332825,74.505493 269.446686,74.975639 
	C264.675629,75.434723 259.830505,75.123924 254.559143,75.137604 
	C254.142944,72.635269 255.231995,72.359749 257.653748,72.633705 
	C262.088745,73.135406 266.742157,73.622704 271.053986,72.801292 
	C276.180634,71.824654 276.795380,74.499557 276.948273,78.107193 
	C277.110199,81.927582 276.990448,85.760017 276.989838,89.587189 
	C276.987701,102.899117 277.165283,116.214920 276.881805,129.520874 
	C276.783234,134.148834 278.056702,138.354889 279.134033,142.672897 
	C279.356445,143.564377 280.218750,145.043442 280.696960,145.009140 
	C285.916443,144.634644 291.137512,150.853500 296.701660,145.071564 
z"/>
<path fill="#CCFEFE" opacity="1.000000" stroke="none" 
	d="
M168.362396,105.000443 
	C168.698242,109.696617 166.941940,114.248367 166.906830,119.099625 
	C166.859863,125.595695 167.452744,131.955780 168.834534,138.673965 
	C165.433746,136.785782 166.851456,132.085922 163.416748,128.679672 
	C162.962204,135.471664 160.701126,141.017319 159.093582,146.746643 
	C158.028275,150.543365 156.023087,153.175186 152.286743,154.949188 
	C155.107162,149.371368 158.529648,143.949509 160.006378,137.516357 
	C163.387024,122.789169 162.254898,108.555107 156.015930,94.381790 
	C161.072067,95.721359 159.638062,101.111099 161.730240,104.542007 
	C162.677704,106.095734 163.485260,106.994766 165.043549,107.529320 
	C167.363449,108.325142 166.692490,105.467453 168.362396,105.000443 
z"/>
<path fill="#E1FFFE" opacity="1.000000" stroke="none" 
	d="
M512.915527,147.546600 
	C505.860535,150.032455 498.605042,148.309082 491.404144,148.497162 
	C490.211823,148.528305 489.267090,147.596725 489.259369,146.181885 
	C489.236664,142.025589 489.134308,137.866638 489.247284,133.713745 
	C489.323792,130.902359 491.491852,130.870636 493.583191,130.874084 
	C500.568207,130.885620 507.554230,130.948868 514.537964,130.854370 
	C520.839966,130.769104 521.240784,130.293198 521.182861,123.964752 
	C521.146362,119.978226 521.035522,115.992371 520.884766,111.549576 
	C523.617676,111.048988 524.006653,112.901352 523.996582,115.109001 
	C523.979126,118.941811 523.779480,122.789658 524.046753,126.603844 
	C524.372681,131.255508 522.040039,132.963699 517.844849,132.979675 
	C510.179108,133.008850 502.513275,132.990784 494.847473,132.994873 
	C492.161163,132.996307 489.648834,133.141830 492.214783,136.779404 
	C492.918518,137.777008 492.417603,138.526062 492.046234,139.500702 
	C490.779480,142.825394 494.141571,146.395355 497.801514,146.299011 
	C502.812225,146.167114 507.943909,144.762466 512.915527,147.546600 
z"/>
<path fill="#D8FEFE" opacity="1.000000" stroke="none" 
	d="
M318.339630,154.943817 
	C321.923187,145.953781 322.348755,136.444443 322.197662,126.765724 
	C321.933777,109.859802 321.987885,92.948921 321.842407,75.586304 
	C324.607147,75.024048 324.981964,76.884491 324.981262,79.089134 
	C324.975067,98.734406 325.228882,118.384819 324.827148,138.021866 
	C324.703979,144.040909 322.775360,150.017441 318.339630,154.943817 
z"/>
<path fill="#D8FEFE" opacity="1.000000" stroke="none" 
	d="
M397.511780,108.964523 
	C397.452942,104.272392 398.775635,99.553421 397.745667,94.705498 
	C395.234283,82.885132 387.958679,75.986008 375.141022,75.312584 
	C362.201050,74.632744 349.196075,75.183540 336.219727,75.227257 
	C335.757568,75.228806 335.296570,75.572098 334.453979,75.912819 
	C334.036316,74.183594 333.949921,72.205696 336.723541,72.423767 
	C350.190735,73.482628 363.644653,73.425117 377.524353,72.034912 
	C380.057526,73.070206 382.414978,73.421768 384.734375,74.780502 
	C398.586975,78.423683 404.339142,99.750465 397.511780,108.964523 
z"/>
<path fill="#F4FEFD" opacity="1.000000" stroke="none" 
	d="
M405.637512,78.042343 
	C406.002441,98.825066 406.012604,119.649963 405.987701,140.474838 
	C405.985748,142.119598 405.740143,143.764084 405.315308,145.706055 
	C403.700531,145.267822 404.099915,142.652557 401.414124,143.018646 
	C400.698608,142.955811 400.401062,142.779663 400.084625,142.247223 
	C399.980347,141.551041 399.951416,141.111786 399.956879,140.343597 
	C400.000580,139.179810 400.023834,138.344238 399.779541,137.216614 
	C399.664459,136.308777 399.634094,135.702271 399.638916,134.793671 
	C399.604889,134.058777 399.477203,133.644684 399.199585,132.943207 
	C399.011627,131.469864 399.520325,130.107483 397.771606,129.316132 
	C397.208710,129.079544 397.014465,128.845581 396.821411,128.334106 
	C398.597015,128.132935 399.928650,123.479683 402.437134,127.644142 
	C402.894897,128.404053 403.981049,126.484711 403.977783,125.318169 
	C403.937408,110.862984 403.951630,96.406624 403.719971,81.954292 
	C403.691650,80.187843 402.984741,78.695244 405.637512,78.042343 
z"/>
<path fill="#D8FEFE" opacity="1.000000" stroke="none" 
	d="
M300.744141,75.051498 
	C301.043152,94.645874 300.938660,114.213966 300.855072,133.782150 
	C300.837952,137.788910 300.410187,141.661652 297.425568,145.005997 
	C299.176666,125.833885 297.534576,106.534607 297.938080,87.267860 
	C298.009552,83.855568 299.095306,80.469620 298.137817,76.987198 
	C297.748047,75.569435 299.032288,75.044716 300.744141,75.051498 
z"/>
<path fill="#CCFEFE" opacity="1.000000" stroke="none" 
	d="
M91.774704,74.736343 
	C91.000290,76.635597 90.969078,78.447792 90.969757,80.294212 
	C90.980240,108.891052 90.971817,137.487885 90.940872,166.554764 
	C88.502533,166.554382 89.024864,164.619858 89.024109,163.054718 
	C89.010544,134.956879 89.015282,106.858986 89.063522,78.761192 
	C89.066605,76.964066 88.367210,74.528809 91.774704,74.736343 
z"/>
<path fill="#E1FFFE" opacity="1.000000" stroke="none" 
	d="
M519.919312,110.520340 
	C511.199829,110.945053 502.380951,110.906136 493.565338,111.057571 
	C490.373352,111.112404 489.078979,109.942078 489.138977,106.683990 
	C489.391968,92.942818 487.367401,95.054016 500.603210,94.845665 
	C507.091431,94.743530 513.583252,94.867302 520.539917,94.947891 
	C518.912170,98.357391 515.301880,97.697777 512.296204,97.881271 
	C506.051666,98.262512 499.770599,98.035248 493.504974,98.098709 
	C492.881042,98.105026 492.024658,98.187386 491.680817,98.584656 
	C490.570831,99.867210 490.519501,102.036377 491.578369,102.654060 
	C494.181183,104.172356 489.612457,109.337982 495.295471,109.072777 
	C501.939148,108.762733 508.609100,108.959808 515.266479,109.039070 
	C516.820435,109.057564 518.659424,108.315308 519.919312,110.520340 
z"/>
<path fill="#D8FEFE" opacity="1.000000" stroke="none" 
	d="
M268.051971,165.290527 
	C280.637695,169.935287 293.182770,171.201767 305.977142,165.250778 
	C310.892365,162.964554 314.034515,159.101730 317.667755,155.109695 
	C316.364288,160.940887 313.485748,165.074966 306.996643,167.454697 
	C300.798126,169.727890 294.501129,171.116898 288.217194,171.513214 
	C281.135010,171.959869 273.158661,173.073853 268.051971,165.290527 
z"/>
<path fill="#E1FFFE" opacity="1.000000" stroke="none" 
	d="
M460.018768,168.015869 
	C460.108948,171.012817 458.313385,171.181488 456.060791,170.837570 
	C444.013092,168.998123 431.889465,170.338745 419.803589,170.107498 
	C416.921448,170.052338 414.250458,173.122620 411.019379,170.911301 
	C410.170380,170.330231 409.362305,169.847107 408.966125,168.468781 
	C408.877014,168.119705 409.001617,167.996735 409.063477,167.934784 
	C410.437378,166.628296 412.108124,166.468643 413.770447,166.457672 
	C427.705109,166.365707 441.639984,166.330765 455.574615,166.472122 
	C456.741608,166.483963 457.887482,166.678406 459.361267,167.465164 
	C459.758636,167.760544 459.931671,167.931152 460.018768,168.015869 
z"/>
<path fill="#D8FEFE" opacity="1.000000" stroke="none" 
	d="
M252.538239,107.036385 
	C253.747589,117.889862 252.530319,128.860962 253.769516,139.812286 
	C254.439728,145.734970 256.081055,151.128647 259.079407,156.572754 
	C252.916046,154.233902 253.133072,148.235748 252.021530,142.959808 
	C249.862503,132.711929 252.062622,122.204926 250.266129,111.910675 
	C249.972580,110.228577 250.577988,108.324615 252.538239,107.036385 
z"/>
<path fill="#CCFEFE" opacity="1.000000" stroke="none" 
	d="
M185.054138,164.302460 
	C191.097534,166.607941 197.172226,168.913040 204.005035,169.187866 
	C215.724670,169.659271 225.574677,166.113663 233.690903,157.119156 
	C233.779495,161.842865 229.911377,164.752563 226.624496,166.252472 
	C216.427643,170.905594 205.514954,172.972366 194.365494,169.801926 
	C191.012222,168.848389 187.250061,168.023911 185.054138,164.302460 
z"/>
<path fill="#E1FFFE" opacity="1.000000" stroke="none" 
	d="
M521.935913,74.712311 
	C508.595978,75.055519 495.244812,75.035141 481.430481,74.915131 
	C481.669861,72.157333 483.868744,73.064812 485.522430,73.045036 
	C492.687469,72.959343 499.855743,72.916794 507.019531,73.044632 
	C510.916595,73.114189 514.610229,71.429916 518.622864,72.150436 
	C520.298645,72.451363 521.478210,72.598221 521.935913,74.712311 
z"/>
<path fill="#CCFEFE" opacity="1.000000" stroke="none" 
	d="
M92.085030,168.435150 
	C101.620697,168.018051 111.251938,168.055206 120.881035,167.929169 
	C124.012650,167.888184 127.138672,167.420868 130.688660,167.241272 
	C130.349716,169.401459 128.561905,169.921539 126.699265,169.931870 
	C115.876396,169.991867 105.053032,169.962936 94.229836,169.956146 
	C93.355186,169.955597 92.607239,169.666550 92.085030,168.435150 
z"/>
<path fill="#CCFEFE" opacity="1.000000" stroke="none" 
	d="
M183.976074,79.199722 
	C182.682343,82.960083 178.958298,84.891228 176.772263,88.205933 
	C173.965210,92.462334 171.476791,96.835907 169.409027,101.818665 
	C167.062180,100.620209 168.479202,98.950676 169.063248,97.633034 
	C172.333786,90.254616 176.137512,83.239342 183.976074,79.199722 
z"/>
<path fill="#CCFEFE" opacity="1.000000" stroke="none" 
	d="
M215.978546,74.391174 
	C207.144531,73.345352 198.317947,73.406288 189.413361,77.038666 
	C190.595154,73.369713 194.414261,73.619316 197.298126,72.966644 
	C203.472702,71.569244 209.864029,70.588860 215.978546,74.391174 
z"/>
<path fill="#C1FEFE" opacity="1.000000" stroke="none" 
	d="
M823.677917,165.973785 
	C823.284790,157.766541 821.971558,149.366730 824.333862,140.866486 
	C824.689270,149.063202 825.981750,157.481079 823.677917,165.973785 
z"/>
<path fill="#C1FEFE" opacity="1.000000" stroke="none" 
	d="
M847.083984,168.386688 
	C852.762573,167.931747 858.521973,167.875275 864.746338,167.690613 
	C865.546936,167.372818 865.906921,167.292496 866.548035,167.439911 
	C867.905884,167.671875 869.006958,167.784683 870.523621,167.930298 
	C870.668213,168.366013 870.441040,169.080841 870.119629,169.126038 
	C862.454773,170.204102 854.782776,171.034378 847.083984,168.386688 
z"/>
<path fill="#CCFEFE" opacity="1.000000" stroke="none" 
	d="
M133.239532,167.335693 
	C139.183029,164.473007 145.191864,161.573563 150.525421,156.875427 
	C147.280609,163.954163 141.056381,166.862396 133.239532,167.335693 
z"/>
<path fill="#C1FEFE" opacity="1.000000" stroke="none" 
	d="
M872.100586,166.815292 
	C868.867554,162.237900 865.950195,157.470261 863.007568,152.349579 
	C867.624512,155.906891 872.757141,159.501022 872.100586,166.815292 
z"/>
<path fill="#D8FEFE" opacity="1.000000" stroke="none" 
	d="
M395.858551,126.013199 
	C393.594177,125.716888 393.026215,123.694572 391.526245,122.697060 
	C388.198151,120.483810 389.217651,118.576820 392.410522,116.843277 
	C392.957367,119.008827 393.591034,121.024300 395.950653,121.856323 
	C399.278839,123.029884 397.030762,124.461159 395.858551,126.013199 
z"/>
<path fill="#C1FEFE" opacity="1.000000" stroke="none" 
	d="
M805.053467,168.562180 
	C810.309021,168.117950 815.695740,168.042969 821.549683,168.014374 
	C821.685791,168.591309 821.374573,169.569565 821.020691,169.585236 
	C815.728149,169.819641 810.381836,170.984467 805.053467,168.562180 
z"/>
<path fill="#CCFEFE" opacity="1.000000" stroke="none" 
	d="
M233.005737,84.643501 
	C228.965424,81.508865 224.626053,78.453171 219.742783,75.654259 
	C225.353455,76.384079 230.992813,77.609871 233.005737,84.643501 
z"/>
<path fill="#CCFEFE" opacity="1.000000" stroke="none" 
	d="
M152.876862,88.836884 
	C149.194351,86.109352 145.565491,82.998108 141.789337,79.586563 
	C147.043625,79.652023 151.207626,83.033447 152.876862,88.836884 
z"/>
<path fill="#E1FFFE" opacity="1.000000" stroke="none" 
	d="
M523.474243,157.023270 
	C522.976868,154.692841 522.866394,152.356796 522.718750,149.591217 
	C524.133484,149.403625 526.811707,147.823181 526.356384,151.026611 
	C526.061584,153.100952 529.386536,157.054153 523.474243,157.023270 
z"/>
<path fill="#CCFEFE" opacity="1.000000" stroke="none" 
	d="
M237.333923,152.968750 
	C238.786835,148.791351 240.595337,144.580795 242.675980,140.147659 
	C243.334946,145.126740 242.302475,149.754761 237.333923,152.968750 
z"/>
<path fill="#D8FEFE" opacity="1.000000" stroke="none" 
	d="
M245.386627,112.943298 
	C243.521973,111.923576 244.181686,110.247177 243.859619,108.451141 
	C243.845291,108.067932 244.028091,107.629921 244.028091,107.629921 
	C244.028091,107.629921 243.665283,107.322823 243.502563,107.145813 
	C243.201675,105.909195 243.063507,104.849594 242.970184,103.389877 
	C246.481262,104.218704 247.743393,108.761856 245.386627,112.943298 
z"/>
<path fill="#CCFEFE" opacity="1.000000" stroke="none" 
	d="
M140.005157,78.485840 
	C135.891663,77.735832 131.708084,76.633636 127.254013,75.270798 
	C132.163422,72.474052 135.958481,75.680244 140.005157,78.485840 
z"/>
<path fill="#E1FFFE" opacity="1.000000" stroke="none" 
	d="
M523.036560,93.852936 
	C522.704651,91.803421 522.809021,89.813309 523.002441,87.398560 
	C525.768555,87.360161 527.264526,88.621735 526.996216,91.610962 
	C526.776001,94.063988 525.215088,94.021790 523.036560,93.852936 
z"/>
<path fill="#C1FEFE" opacity="1.000000" stroke="none" 
	d="
M825.278931,139.964020 
	C825.854187,136.736786 827.226196,135.348801 829.600464,138.926712 
	C830.768250,140.686584 831.814758,142.526962 832.927856,144.688080 
	C829.404114,144.953568 829.092346,140.215607 825.278931,139.964020 
z"/>
<path fill="#F4FEFD" opacity="1.000000" stroke="none" 
	d="
M384.940094,74.673981 
	C382.448944,75.014999 379.948212,74.883247 378.035461,72.392380 
	C381.208160,69.967560 383.256653,71.518311 384.940094,74.673981 
z"/>
<path fill="#C1FEFE" opacity="1.000000" stroke="none" 
	d="
M812.975159,74.452560 
	C810.362122,74.898705 807.617981,74.987450 804.420898,75.017807 
	C806.620117,71.523537 809.743591,72.927071 812.975159,74.452560 
z"/>
<path fill="#D8FEFE" opacity="1.000000" stroke="none" 
	d="
M396.281006,157.949738 
	C396.753448,155.780014 397.597076,153.592682 398.714844,151.196991 
	C401.151520,154.293076 399.911560,156.452423 396.281006,157.949738 
z"/>
<path fill="#CCFEFE" opacity="1.000000" stroke="none" 
	d="
M118.953323,74.462273 
	C116.324196,74.893814 113.577950,74.962814 110.381470,74.933456 
	C112.657608,71.660187 115.741196,72.810745 118.953323,74.462273 
z"/>
<path fill="#C1FEFE" opacity="1.000000" stroke="none" 
	d="
M839.245972,157.057648 
	C841.447205,157.940628 842.630920,159.836487 843.090149,162.581451 
	C839.788330,162.548859 838.843506,160.451889 839.245972,157.057648 
z"/>
<path fill="#D8FEFE" opacity="1.000000" stroke="none" 
	d="
M399.746277,142.279053 
	C400.279724,142.183167 400.550171,142.376007 400.941193,142.792679 
	C400.618256,144.939651 401.885681,147.185226 399.623230,148.948151 
	C399.348022,146.900009 399.415680,144.733902 399.746277,142.279053 
z"/>
<path fill="#D8FEFE" opacity="1.000000" stroke="none" 
	d="
M253.753510,75.107864 
	C253.770325,76.840843 253.420959,78.583435 252.942322,80.690269 
	C249.184723,78.706032 251.324249,76.915451 253.753510,75.107864 
z"/>
<path fill="#D8FEFE" opacity="1.000000" stroke="none" 
	d="
M252.530853,96.006073 
	C252.941727,97.369667 253.012772,98.786743 252.991577,100.622101 
	C249.300644,99.858315 248.846619,98.229042 252.530853,96.006073 
z"/>
<path fill="#D8FEFE" opacity="1.000000" stroke="none" 
	d="
M308.954224,74.466728 
	C307.305756,74.870598 305.558868,74.930313 303.380554,74.906540 
	C304.585876,71.788986 306.692474,72.716858 308.954224,74.466728 
z"/>
<path fill="#CCFEFE" opacity="1.000000" stroke="none" 
	d="
M99.968201,74.489441 
	C98.312019,74.890312 96.554291,74.946259 94.362968,74.915436 
	C95.588547,71.824104 97.696213,72.711952 99.968201,74.489441 
z"/>
<path fill="#E1FFFE" opacity="1.000000" stroke="none" 
	d="
M523.451294,80.952606 
	C522.750977,79.284355 522.394470,77.542542 521.982788,75.426193 
	C525.013306,76.204781 526.083008,78.003929 523.451294,80.952606 
z"/>
<path fill="#CCFEFE" opacity="1.000000" stroke="none" 
	d="
M168.768921,141.196686 
	C170.408554,142.095978 170.880615,143.628098 171.031189,145.653488 
	C168.164490,145.572128 167.504410,143.943527 168.768921,141.196686 
z"/>
<path fill="#CCFEFE" opacity="1.000000" stroke="none" 
	d="
M238.753662,92.007523 
	C236.822647,91.346771 235.987335,89.483170 234.900864,87.439468 
	C237.874985,87.109482 238.288086,89.424561 238.753662,92.007523 
z"/>
<path fill="#CCFEFE" opacity="1.000000" stroke="none" 
	d="
M242.791916,100.967270 
	C240.591644,100.472717 240.813126,98.306908 240.152008,96.276962 
	C242.923325,96.396317 243.102539,98.365570 242.791916,100.967270 
z"/>
<path fill="#F4FEFD" opacity="1.000000" stroke="none" 
	d="
M394.756256,114.762375 
	C395.886444,114.834755 397.019379,114.917206 398.575531,114.999527 
	C398.713837,117.053230 398.007568,118.463120 395.276184,117.110718 
	C394.610413,116.568367 394.442993,116.084892 394.607635,115.160568 
	C394.742706,114.787994 394.758972,114.772453 394.756256,114.762375 
z"/>
<path fill="#C1FEFE" opacity="1.000000" stroke="none" 
	d="
M832.951050,145.434601 
	C834.774719,146.285019 835.151611,148.400162 836.127930,150.521790 
	C833.032715,150.507950 833.184937,148.039795 832.951050,145.434601 
z"/>
<path fill="#E1FFFE" opacity="1.000000" stroke="none" 
	d="
M520.948242,147.640625 
	C519.603638,148.029846 518.199890,148.057587 516.384827,147.985596 
	C517.283142,145.018997 519.007019,145.507736 520.948242,147.640625 
z"/>
<path fill="#CCFEFE" opacity="1.000000" stroke="none" 
	d="
M179.070953,159.282227 
	C180.813034,159.017578 181.723923,160.289169 182.835754,161.733337 
	C181.262192,161.873978 179.087006,162.520325 179.070953,159.282227 
z"/>
<path fill="#CCFEFE" opacity="1.000000" stroke="none" 
	d="
M171.220703,148.014374 
	C173.000931,148.233078 173.441025,149.798157 174.087463,151.580719 
	C171.799530,151.878464 171.524353,150.093903 171.220703,148.014374 
z"/>
<path fill="#C1FEFE" opacity="1.000000" stroke="none" 
	d="
M800.626587,85.033249 
	C801.008667,86.054398 801.053345,87.145073 801.023438,88.640350 
	C798.341187,88.130524 798.477844,86.756790 800.626587,85.033249 
z"/>
<path fill="#CCFEFE" opacity="1.000000" stroke="none" 
	d="
M176.059814,155.248474 
	C177.449249,155.671555 178.433350,156.794159 179.065109,158.578751 
	C176.827271,158.986267 176.056183,157.654663 176.059814,155.248474 
z"/>
<path fill="#F4FEFD" opacity="1.000000" stroke="none" 
	d="
M399.000610,115.000305 
	C399.118134,113.894516 398.673615,112.668915 399.570618,111.747795 
	C399.709351,111.605339 400.619171,111.846825 400.698212,112.075012 
	C401.095886,113.223122 401.112183,114.341530 399.342285,114.938675 
	C398.998779,114.999390 399.000000,115.000000 399.000610,115.000305 
z"/>
<path fill="#C1FEFE" opacity="1.000000" stroke="none" 
	d="
M820.024292,74.480865 
	C819.305908,74.851440 818.499084,74.919487 817.293274,74.901566 
	C817.544556,72.867928 818.510864,72.428558 820.024292,74.480865 
z"/>
<path fill="#CCFEFE" opacity="1.000000" stroke="none" 
	d="
M156.004486,93.645142 
	C154.872421,93.621239 154.319061,92.747078 153.945389,91.368210 
	C155.454666,91.002266 155.986511,91.908234 156.004486,93.645142 
z"/>
<path fill="#C1FEFE" opacity="1.000000" stroke="none" 
	d="
M844.008179,164.311081 
	C845.141785,164.376144 845.710876,165.239014 845.979248,166.679596 
	C844.492432,166.938858 844.005310,166.005524 844.008179,164.311081 
z"/>
<path fill="#C1FEFE" opacity="1.000000" stroke="none" 
	d="
M801.845520,75.094910 
	C801.932068,75.646759 801.713135,76.178513 801.246033,76.865044 
	C799.839478,75.998177 800.277405,75.421547 801.845520,75.094910 
z"/>
<path fill="#C1FEFE" opacity="1.000000" stroke="none" 
	d="
M800.621155,140.983307 
	C800.964172,141.402710 801.018555,141.871628 801.014160,142.691589 
	C799.523376,142.752151 798.601929,142.303452 800.621155,140.983307 
z"/>
<path fill="#C1FEFE" opacity="1.000000" stroke="none" 
	d="
M800.652954,98.997734 
	C800.989807,99.418190 801.034912,99.883293 801.017090,100.695007 
	C799.608582,100.715630 798.468384,100.328751 800.652954,98.997734 
z"/>
<path fill="#E1FFFE" opacity="1.000000" stroke="none" 
	d="
M518.459961,105.615570 
	C518.687561,106.417244 518.405212,106.705048 517.784485,106.583076 
	C517.655151,106.557671 517.480713,106.375145 517.460876,106.244743 
	C517.365662,105.616241 517.671814,105.353836 518.459961,105.615570 
z"/>
<path fill="#C1FEFE" opacity="1.000000" stroke="none" 
	d="
M800.675781,107.007019 
	C801.012939,107.424706 801.057800,107.884842 801.039734,108.687744 
	C800.316528,108.944611 799.558899,108.851334 799.521057,108.045128 
	C799.506104,107.727440 800.078552,107.382172 800.675781,107.007019 
z"/>
<path fill="#C1FEFE" opacity="1.000000" stroke="none" 
	d="
M800.766602,166.152451 
	C801.327271,166.440460 801.656921,166.901260 802.018127,167.655762 
	C801.041748,167.877136 799.999756,167.836578 800.766602,166.152451 
z"/>
<path fill="#D8FEFE" opacity="1.000000" stroke="none" 
	d="
M394.443726,114.837952 
	C394.818207,115.274467 394.893677,115.760948 394.972107,116.615494 
	C394.484528,116.957542 393.994019,116.931534 393.141968,116.814896 
	C392.893738,115.858475 393.318939,115.224411 394.443726,114.837952 
z"/>
<path fill="#C1FEFE" opacity="1.000000" stroke="none" 
	d="
M862.792603,150.940521 
	C861.898743,151.017715 861.238464,150.558777 861.010132,149.315155 
	C861.998535,149.076065 862.759399,149.441605 862.792603,150.940521 
z"/>
<path fill="#CCFEFE" opacity="1.000000" stroke="none" 
	d="
M243.641525,135.879303 
	C243.322128,135.723419 243.347427,135.439926 243.780365,135.068481 
	C244.008606,135.243820 243.941345,135.500885 243.641525,135.879303 
z"/>
<path fill="#EFFEFE" opacity="1.000000" stroke="none" 
	d="
M747.162720,349.662598 
	C744.092102,349.656952 741.438293,349.554535 738.794922,349.677246 
	C735.774475,349.817444 734.503723,348.343933 734.522705,345.499359 
	C734.617737,331.257660 734.961182,317.011871 734.708557,302.776520 
	C734.611145,297.289368 734.657410,291.830200 734.760132,286.351501 
	C734.819031,283.211792 735.697754,281.608490 739.048950,281.938690 
	C740.368713,282.068665 741.713013,281.945312 743.046143,281.944427 
	C752.936890,281.937836 752.998169,281.933411 753.801025,291.735352 
	C753.983276,293.960449 754.738525,295.277740 757.026245,295.197662 
	C760.254639,295.084686 760.828064,296.856812 760.799622,299.633331 
	C760.692139,310.127930 760.707886,320.624390 760.764160,331.119690 
	C760.778992,333.889648 760.579590,336.221863 756.914124,336.008484 
	C754.373413,335.860535 753.895264,337.517181 753.900024,339.573608 
	C753.903137,340.906311 753.669495,342.267487 753.865845,343.566925 
	C754.628113,348.611420 752.193909,350.225403 747.162720,349.662598 
z"/>
<path fill="#D8FEFE" opacity="1.000000" stroke="none" 
	d="
M671.933533,317.860413 
	C672.025635,313.903412 671.258789,310.509094 674.500244,307.409332 
	C675.881042,306.088867 675.206909,302.315491 674.991943,299.695770 
	C674.583984,294.722839 677.720947,295.084412 681.061768,295.059448 
	C684.861328,295.031097 684.771667,296.927917 684.392944,299.885101 
	C683.962708,303.245056 684.309692,306.319397 686.824036,309.487152 
	C689.391602,312.721985 687.919983,317.410706 687.469910,321.445984 
	C687.331238,322.689453 685.672546,322.683044 684.505188,322.698029 
	C681.680847,322.734253 678.843750,322.580444 676.034729,322.798767 
	C672.582397,323.067047 671.593445,321.380157 671.933533,317.860413 
z"/>
<path fill="#EBFFFE" opacity="1.000000" stroke="none" 
	d="
M469.207947,308.898987 
	C465.494324,309.267181 463.870422,308.337524 464.057159,304.563171 
	C464.360474,298.433228 464.217346,292.273834 464.063202,286.131866 
	C463.990295,283.225952 464.863281,281.852997 467.992035,281.927734 
	C473.969910,282.070557 479.955566,282.040527 485.934570,281.916626 
	C488.902100,281.855164 490.087555,282.935272 490.006531,286.001251 
	C489.840912,292.272644 489.801514,298.558350 490.044342,304.825195 
	C490.178009,308.274475 488.723206,309.099976 485.630463,308.995911 
	C480.319000,308.817291 474.998169,308.917389 469.207947,308.898987 
z"/>
<path fill="#EFFEFD" opacity="1.000000" stroke="none" 
	d="
M860.520508,79.071594 
	C861.504395,81.757866 860.160645,83.825760 858.711792,85.922585 
	C851.918091,95.754623 845.278381,105.695015 838.360779,115.438499 
	C835.621277,119.297035 837.904785,122.055481 839.738037,124.928925 
	C846.872131,136.111328 854.154419,147.199173 861.293579,158.378403 
	C863.837463,162.361816 863.352600,163.187592 858.617310,163.843399 
	C851.685181,164.803482 848.431763,162.988174 844.610718,156.318253 
	C839.902771,148.100220 835.050964,139.964615 830.336487,131.750244 
	C828.521423,128.587769 827.454651,128.379364 824.625244,131.368576 
	C817.777832,138.602814 819.046082,147.270447 819.029053,155.822876 
	C819.013977,163.387466 813.955078,166.432709 807.139526,162.959900 
	C805.357422,162.051865 805.200439,160.370514 805.199219,158.689056 
	C805.181091,133.535309 805.213074,108.381454 805.141052,83.227882 
	C805.132996,80.427185 806.370728,79.251221 808.941223,79.134552 
	C810.603699,79.059113 812.285522,79.239159 813.934387,79.069328 
	C817.891479,78.661758 819.155823,80.392761 819.098938,84.272186 
	C818.918762,96.560493 819.032349,108.853104 819.032349,121.551903 
	C822.444092,121.134621 823.194580,118.640770 824.308289,116.868538 
	C831.553894,105.338631 838.692444,93.740883 845.785645,82.116295 
	C847.162354,79.860062 848.918762,78.900375 851.540710,79.045715 
	C854.364258,79.202232 857.202515,79.094261 860.520508,79.071594 
z"/>
<path fill="#3CEFED" opacity="1.000000" stroke="none" 
	d="
M823.272949,114.523697 
	C822.204102,115.903168 821.254639,115.890633 821.099609,114.471146 
	C820.867615,112.345657 821.039368,110.176086 821.039368,107.926826 
	C825.900391,110.949226 825.900391,110.949226 823.272949,114.523697 
z"/>
<path fill="#18F8F7" opacity="1.000000" stroke="none" 
	d="
M866.911438,167.249878 
	C866.448425,167.606400 866.091980,167.653748 865.473511,167.631744 
	C865.159424,167.237244 865.091187,166.913712 865.058350,166.586624 
	C864.925842,165.266083 864.768494,163.902954 865.885193,162.910309 
	C866.125793,162.696487 866.903992,162.721481 867.156738,162.947342 
	C868.658630,164.289566 867.653931,165.623489 866.911438,167.249878 
z"/>
<path fill="#3CEFED" opacity="1.000000" stroke="none" 
	d="
M860.967896,79.009476 
	C860.980164,78.845078 860.986694,78.672737 861.045410,78.520554 
	C861.744202,76.711151 862.981995,75.891136 864.885010,76.632019 
	C865.245117,76.772217 865.715454,77.520416 865.615723,77.807747 
	C864.904358,79.856262 863.104370,78.680664 861.397400,79.015053 
	C861.006714,79.041519 860.986328,79.010902 860.967896,79.009476 
z"/>
<path fill="#EDFEFE" opacity="1.000000" stroke="none" 
	d="
M588.908997,78.699905 
	C601.640198,76.015045 612.417542,80.245216 619.221619,90.548050 
	C620.463623,92.428734 623.833801,94.419136 619.951233,97.030014 
	C615.661499,99.914749 611.869202,99.789940 609.353455,96.659897 
	C601.397156,86.760551 588.017700,86.901001 581.027771,96.892395 
	C578.212280,100.916862 575.859924,105.338036 575.381897,110.076630 
	C574.229553,121.500267 573.392395,133.115326 579.225342,143.724152 
	C582.434509,149.560822 587.662842,153.448730 594.385254,153.719467 
	C600.530396,153.966949 606.071777,152.006454 609.371033,145.863312 
	C611.431458,142.026794 614.252502,142.085648 618.693848,144.659485 
	C622.885010,147.088333 620.593628,149.323959 619.153687,152.011032 
	C608.758057,171.411011 577.859680,168.129822 567.954224,150.314178 
	C557.610474,131.710236 557.364990,112.931450 567.021057,94.206169 
	C571.408752,85.697495 578.788879,80.387794 588.908997,78.699905 
z"/>
<path fill="#EDFEFE" opacity="1.000000" stroke="none" 
	d="
M749.696777,80.528015 
	C764.475159,74.418076 779.899231,79.267700 787.521301,92.010513 
	C789.288086,94.964355 788.993896,96.203552 785.635315,97.886795 
	C781.061218,100.179192 778.680359,99.685219 775.515930,95.371544 
	C768.873230,86.316383 754.595154,87.583084 748.059875,96.882774 
	C740.036926,108.299599 739.311096,133.685944 748.218201,146.359039 
	C753.816101,154.323868 769.189331,157.668747 776.689331,146.223740 
	C779.026245,142.657608 781.398560,142.400421 785.086670,143.934326 
	C789.234802,145.659576 789.170349,147.866272 787.219666,151.220490 
	C775.790405,170.873413 747.858948,168.930954 736.020508,151.824921 
	C724.685730,135.446762 724.647522,107.779800 735.381836,92.290657 
	C738.942688,87.152359 743.584839,83.223732 749.696777,80.528015 
z"/>
<path fill="#EDFEFE" opacity="1.000000" stroke="none" 
	d="
M318.802795,102.000259 
	C318.783020,114.640114 318.788544,126.772461 318.095673,138.908401 
	C317.253601,153.657944 306.787598,164.344025 291.995819,165.100479 
	C283.730286,165.523178 275.675690,165.124741 268.613770,160.044586 
	C259.726318,153.651199 257.486084,144.183517 257.298187,134.148514 
	C256.983398,117.337387 257.245880,100.516151 257.104401,83.700523 
	C257.075378,80.247597 258.255676,78.736244 261.727936,79.053612 
	C263.048492,79.174324 264.391693,79.106491 265.721710,79.053528 
	C269.654663,78.896904 271.251190,80.448792 271.195129,84.676834 
	C270.974335,101.324142 270.981873,117.977341 271.158508,134.625671 
	C271.230682,141.427704 272.447021,148.094315 279.283051,151.696060 
	C287.636017,156.097015 301.768066,153.913055 303.629517,141.588593 
	C304.175598,137.973129 304.863861,134.417358 304.845123,130.722702 
	C304.767273,115.404884 304.988220,100.083382 304.717468,84.769981 
	C304.630890,79.874100 306.664429,78.846924 310.960297,78.983955 
	C317.727905,79.199837 318.745361,79.757271 318.787476,85.016762 
	C318.831451,90.510963 318.800903,96.005768 318.802795,102.000259 
z"/>
<path fill="#EFFEFD" opacity="1.000000" stroke="none" 
	d="
M261.170319,319.986328 
	C261.186096,314.334839 261.150116,309.180267 261.209656,304.026794 
	C261.251831,300.379486 260.095825,296.530823 265.171021,294.488098 
	C267.199524,293.671692 266.881195,289.972748 266.725830,287.543610 
	C266.463043,283.433502 268.012604,281.614471 272.176758,282.072327 
	C273.490417,282.216766 274.847473,282.197388 276.162811,282.053406 
	C280.393494,281.590271 281.820557,283.789886 281.801056,287.638031 
	C281.784058,290.994934 280.857849,294.728302 285.623047,296.121185 
	C286.935120,296.504700 286.843597,298.322632 286.843994,299.677765 
	C286.847290,310.150330 286.876648,320.622955 286.861298,331.095459 
	C286.858063,333.296661 286.747986,335.355865 283.900208,336.106598 
	C280.973846,336.878021 281.760559,339.612976 281.843842,341.578308 
	C282.213409,350.297302 281.016663,349.006165 274.129517,349.031250 
	C273.630646,349.033081 273.121948,348.968872 272.634399,349.043610 
	C268.115082,349.736450 266.236694,347.987305 266.684265,343.292236 
	C266.988861,340.097137 267.509277,336.578064 262.774384,335.426270 
	C261.271698,335.060730 261.316986,332.599243 261.267914,330.955353 
	C261.163757,327.466858 261.187866,323.974518 261.170319,319.986328 
z"/>
<path fill="#06FCFC" opacity="1.000000" stroke="none" 
	d="
M260.167603,336.709808 
	C264.384399,338.151215 264.420837,341.036224 263.773010,344.385132 
	C262.888733,348.956268 264.679779,351.741455 269.140472,351.829498 
	C273.560059,351.916687 278.145203,352.934692 282.421722,350.770813 
	C283.149261,350.402710 283.998352,349.905548 284.653656,350.783661 
	C286.614685,353.411438 285.036499,356.239929 284.950470,358.963440 
	C284.871674,361.457397 282.748749,360.996948 281.168304,361.022644 
	C277.336548,361.084991 273.503296,361.062347 269.670624,361.059570 
	C263.292175,361.054962 261.688751,359.849304 262.478821,353.570618 
	C263.085785,348.747101 260.355286,347.021454 257.002289,346.252716 
	C254.298248,345.632782 253.868423,344.485657 253.919235,342.234711 
	C254.006668,338.360870 253.926224,334.548798 249.915329,332.227020 
	C248.829224,331.598297 248.942780,330.199005 248.944183,329.018036 
	C248.954803,320.097260 248.939529,311.176422 248.985489,302.255859 
	C248.992233,300.947906 248.873901,298.763763 249.502029,298.473053 
	C254.562042,296.131470 253.963608,291.731598 254.071594,287.445282 
	C254.122284,285.433167 256.011963,284.830688 257.537567,284.274109 
	C261.416840,282.858826 263.873810,281.034851 262.270142,276.155670 
	C261.335815,273.312927 262.542480,270.885315 266.287323,270.928589 
	C271.119263,270.984436 275.954590,271.031830 280.784119,270.910370 
	C284.114166,270.826660 285.029633,272.454895 285.111389,275.520233 
	C285.205078,279.032196 283.221375,279.148438 280.628326,279.071472 
	C276.965668,278.962708 273.293976,279.151947 269.631805,279.035553 
	C265.557465,278.906128 263.832489,280.817230 264.027039,284.793671 
	C264.214508,288.624847 264.642609,292.541656 260.100952,294.579529 
	C259.128479,295.015900 258.683502,296.096741 258.708405,297.502777 
	C258.908966,308.824310 258.908661,320.149261 259.074860,331.471649 
	C259.098663,333.093414 259.685303,334.706940 260.167603,336.709808 
z"/>
<path fill="#06FCFC" opacity="1.000000" stroke="none" 
	d="
M285.029480,347.348145 
	C284.919373,342.882843 284.167816,338.777893 288.266205,335.723969 
	C289.370880,334.900909 289.701904,332.284027 289.504974,330.593414 
	C288.307343,320.312988 289.262299,310.013824 289.030823,299.729889 
	C288.971558,297.097717 288.637604,294.706879 286.741699,292.892212 
	C283.984772,290.253448 284.860077,287.082886 285.287506,284.047394 
	C285.452698,282.874390 286.892029,282.851410 287.747803,283.485596 
	C290.444580,285.484161 294.368530,286.590454 294.032990,291.036438 
	C293.786652,294.300842 294.447327,296.909973 297.696625,298.454956 
	C299.063690,299.104919 299.040222,300.618500 299.058472,301.977051 
	C299.174438,310.606720 300.261078,319.368713 299.093079,327.819702 
	C298.299377,333.562439 293.275696,338.366577 293.026367,344.918854 
	C292.984253,346.024384 288.982788,350.111603 285.029480,347.348145 
z"/>
<path fill="#EBFFFE" opacity="1.000000" stroke="none" 
	d="
M482.081360,163.936096 
	C471.230255,163.860229 471.229767,163.860229 471.229645,153.515762 
	C471.229401,131.370422 471.224915,109.225075 471.232300,87.079727 
	C471.234863,79.347046 471.496033,79.089706 478.951050,79.086510 
	C490.273468,79.081650 501.597748,79.193985 512.917419,79.014954 
	C517.151245,78.947983 518.869995,80.374496 518.915955,84.779564 
	C518.963623,89.359055 517.301575,91.037422 512.760925,90.902275 
	C505.108765,90.674507 497.442749,90.954445 489.785950,90.822716 
	C486.389709,90.764290 484.925964,91.982414 485.063538,95.479614 
	C485.259766,100.467941 485.310883,105.473724 485.128296,110.461235 
	C484.997772,114.026169 486.585480,115.138199 489.897339,115.093193 
	C497.388550,114.991379 504.884735,115.191467 512.373962,115.033836 
	C515.947571,114.958618 517.637878,116.409225 517.791992,119.910698 
	C517.942200,123.322937 517.728516,126.402885 513.152344,126.458534 
	C505.502625,126.551567 497.850952,126.821915 490.204590,126.710358 
	C486.397797,126.654816 484.739777,127.772133 485.067841,131.840515 
	C485.401337,135.976181 485.180511,140.160187 485.132660,144.322205 
	C485.044525,151.988815 486.146393,153.447952 493.519257,152.676712 
	C500.018311,151.996872 506.489288,152.574768 512.954651,152.161438 
	C516.797180,151.915756 518.798950,153.039505 518.911560,157.375336 
	C519.026123,161.786896 517.600037,163.942062 513.038818,163.914948 
	C502.882416,163.854599 492.725311,163.919983 482.081360,163.936096 
z"/>
<path fill="#EBFFFE" opacity="1.000000" stroke="none" 
	d="
M677.868164,152.205902 
	C683.250305,153.196213 681.919128,157.036072 681.676086,160.152557 
	C681.431580,163.287613 679.205078,163.965317 676.322876,163.937561 
	C665.512329,163.833450 654.698303,163.785141 643.889526,163.960129 
	C639.530884,164.030685 638.058899,162.253677 638.077271,158.010422 
	C638.183350,133.560272 638.087646,109.109314 638.128479,84.658745 
	C638.137817,79.056801 638.325073,79.275871 646.451355,78.997856 
	C651.044067,78.840721 652.055542,80.664551 652.022461,84.841225 
	C651.858948,105.465134 652.022644,126.091621 651.863342,146.715591 
	C651.830200,151.008743 652.481689,152.929855 657.600220,152.376740 
	C664.152649,151.668671 670.838562,152.195068 677.868164,152.205902 
z"/>
<path fill="#F4FEFD" opacity="1.000000" stroke="none" 
	d="
M393.664642,96.831413 
	C393.880219,97.507729 393.920776,97.931183 393.948181,98.673866 
	C393.976013,99.797943 393.990479,100.603218 393.968262,101.710999 
	C393.916687,102.732903 393.871002,103.452797 393.738953,104.523499 
	C392.692078,106.356712 392.416107,108.151367 391.317383,109.930618 
	C391.143433,112.256638 389.448334,113.214516 388.086761,114.747032 
	C387.706787,115.117966 387.602173,115.305908 387.216675,115.652542 
	C386.177673,116.207809 385.419586,116.604378 384.341370,117.048431 
	C383.413940,117.049240 382.877930,117.214874 382.254517,117.866806 
	C382.082916,118.102226 381.934601,118.515709 381.837189,118.712570 
	C381.161072,119.768646 380.852051,120.646072 381.757294,121.807724 
	C382.439697,122.313278 382.923431,122.603172 383.683472,122.970016 
	C385.247040,124.289230 386.846039,124.979317 388.736511,125.809555 
	C389.807251,126.948532 390.625153,127.879013 391.682434,129.014603 
	C392.103973,129.306183 392.286163,129.392670 392.536377,129.773895 
	C392.780304,130.722122 392.956238,131.375610 393.187866,132.363220 
	C393.447937,133.451889 394.019714,133.983734 394.539734,134.877960 
	C394.756897,135.540619 394.846039,135.949921 394.946106,136.673615 
	C395.030396,140.399933 394.982391,143.812210 394.982849,147.618011 
	C394.928436,148.429367 394.879852,148.847031 394.749573,149.569733 
	C394.314545,150.477722 393.929169,151.059235 393.334106,151.919098 
	C392.588745,153.661591 392.013794,155.099503 391.181519,156.740784 
	C390.241638,157.725601 389.098724,157.838333 388.283539,158.915833 
	C387.589508,160.103134 386.816010,160.722763 385.473450,161.057648 
	C382.445282,162.432480 379.408783,162.551956 376.220276,163.532135 
	C367.937012,163.752396 359.981323,163.791885 351.568054,163.773590 
	C349.629303,162.793747 348.076477,162.827423 346.186798,163.540131 
	C344.876678,163.763458 343.865326,163.815460 342.476685,163.814087 
	C339.630157,162.758224 338.968689,160.864456 338.959808,158.307388 
	C338.944031,153.759369 339.404785,149.192169 338.469666,144.277618 
	C338.245819,138.910049 338.214325,133.923523 338.226807,128.473511 
	C338.737976,126.226555 338.459961,124.416130 338.342163,122.300385 
	C338.198578,121.545715 338.178925,121.106659 338.187927,120.338890 
	C338.822601,117.916702 338.408997,115.781372 338.372925,113.326309 
	C338.237488,108.329391 338.206116,103.671982 338.224487,98.557907 
	C339.790619,93.826050 338.704651,89.404541 338.985474,85.058990 
	C339.122620,82.936592 338.847015,80.727531 341.754883,79.518600 
	C353.399963,79.289490 364.678345,79.273293 376.410461,79.328598 
	C378.292786,80.104370 379.723572,80.802155 381.682526,80.962868 
	C387.634338,82.825722 390.804260,87.042542 392.950043,92.626709 
	C393.068817,94.192398 392.771637,95.458084 393.664642,96.831413 
z"/>
<path fill="#C1FEFE" opacity="1.000000" stroke="none" 
	d="
M338.165802,144.363434 
	C341.249146,145.244583 339.572998,147.897781 339.940704,149.957489 
	C340.716400,154.302704 338.219452,159.128342 341.984955,163.409180 
	C338.857635,164.398529 337.943085,162.646866 337.973846,159.817856 
	C338.028137,154.822311 338.030334,149.826172 338.165802,144.363434 
z"/>
<path fill="#C1FEFE" opacity="1.000000" stroke="none" 
	d="
M341.698944,79.210152 
	C339.754730,81.752258 340.009735,84.801964 339.891113,87.885643 
	C339.763824,91.194519 340.973755,94.667809 338.632812,97.957642 
	C338.177368,92.787735 338.122345,87.472984 337.964874,82.161263 
	C337.893677,79.759094 338.939087,78.790001 341.698944,79.210152 
z"/>
<path fill="#C1FEFE" opacity="1.000000" stroke="none" 
	d="
M395.259827,147.720947 
	C393.183167,144.620880 394.101746,141.078430 394.675232,137.279510 
	C396.851501,140.373459 395.922363,143.917221 395.259827,147.720947 
z"/>
<path fill="#C1FEFE" opacity="1.000000" stroke="none" 
	d="
M376.299744,163.808762 
	C378.082428,160.854950 381.436310,161.676971 384.752258,161.083801 
	C383.069641,164.235718 379.650940,163.347595 376.299744,163.808762 
z"/>
<path fill="#C1FEFE" opacity="1.000000" stroke="none" 
	d="
M346.315125,163.819260 
	C347.259125,161.192215 348.992340,161.510132 350.997498,163.394745 
	C349.654327,163.786240 348.198242,163.856644 346.315125,163.819260 
z"/>
<path fill="#C1FEFE" opacity="1.000000" stroke="none" 
	d="
M391.486359,110.105347 
	C391.219971,108.307510 391.673218,106.541161 393.344604,104.991966 
	C393.757904,106.838242 393.357880,108.620750 391.486359,110.105347 
z"/>
<path fill="#C1FEFE" opacity="1.000000" stroke="none" 
	d="
M381.796906,80.702072 
	C379.990601,82.600204 378.612183,80.920067 376.975220,79.694153 
	C378.614166,78.929123 380.021393,80.005737 381.796906,80.702072 
z"/>
<path fill="#C1FEFE" opacity="1.000000" stroke="none" 
	d="
M388.862152,125.703766 
	C387.007629,126.004684 385.187317,125.645493 384.026276,123.389404 
	C385.928131,123.060066 387.423340,124.037598 388.862152,125.703766 
z"/>
<path fill="#C1FEFE" opacity="1.000000" stroke="none" 
	d="
M393.914520,96.715927 
	C391.609955,96.533295 391.811218,95.062347 392.714844,93.203354 
	C394.157135,93.849922 393.963501,95.131828 393.914520,96.715927 
z"/>
<path fill="#E1FFFE" opacity="1.000000" stroke="none" 
	d="
M397.525513,129.546082 
	C398.934235,129.254044 401.253723,128.123611 400.114685,131.685379 
	C399.227783,132.416321 398.765625,131.987396 398.104248,131.211914 
	C397.769226,130.600662 397.673889,130.218521 397.525513,129.546082 
z"/>
<path fill="#C1FEFE" opacity="1.000000" stroke="none" 
	d="
M338.165161,113.416382 
	C339.594666,115.063072 339.075439,117.260689 338.455231,119.729713 
	C338.164886,117.955437 338.113190,115.900688 338.165161,113.416382 
z"/>
<path fill="#C1FEFE" opacity="1.000000" stroke="none" 
	d="
M394.215698,101.836090 
	C392.897369,101.304298 392.841980,100.398018 393.689392,99.178116 
	C395.058716,99.692352 394.967194,100.635033 394.215698,101.836090 
z"/>
<path fill="#C1FEFE" opacity="1.000000" stroke="none" 
	d="
M338.124969,122.408539 
	C339.544647,123.704422 339.084717,125.587440 338.494934,127.735916 
	C338.191101,126.284103 338.111420,124.558205 338.124969,122.408539 
z"/>
<path fill="#C1FEFE" opacity="1.000000" stroke="none" 
	d="
M381.965820,121.632568 
	C379.863007,121.548286 379.367004,120.627480 381.436462,118.992371 
	C381.818420,119.686874 381.897095,120.464317 381.965820,121.632568 
z"/>
<path fill="#D8FEFE" opacity="1.000000" stroke="none" 
	d="
M399.530151,137.156281 
	C400.960815,137.514664 401.223969,138.420639 400.256683,139.818146 
	C399.010437,139.326828 399.133545,138.375076 399.530151,137.156281 
z"/>
<path fill="#C1FEFE" opacity="1.000000" stroke="none" 
	d="
M388.439606,159.120026 
	C387.956207,157.622726 388.821381,157.049881 390.568542,156.960022 
	C390.637939,158.099136 389.805206,158.693878 388.439606,159.120026 
z"/>
<path fill="#D8FEFE" opacity="1.000000" stroke="none" 
	d="
M397.888214,131.335022 
	C398.390594,131.245010 398.916656,131.507217 399.711121,131.886887 
	C399.946136,132.560013 399.912689,133.115662 399.776642,134.081451 
	C398.476532,133.940186 398.037537,132.912155 397.888214,131.335022 
z"/>
<path fill="#C1FEFE" opacity="1.000000" stroke="none" 
	d="
M382.371338,118.075806 
	C382.153717,117.095329 382.038910,115.889458 383.862183,116.843430 
	C383.567383,117.413734 383.113556,117.731560 382.371338,118.075806 
z"/>
<path fill="#C1FEFE" opacity="1.000000" stroke="none" 
	d="
M393.465363,152.116943 
	C393.008606,151.312668 393.150970,150.527939 394.371765,149.975006 
	C394.902771,150.812332 394.675018,151.554749 393.465363,152.116943 
z"/>
<path fill="#C1FEFE" opacity="1.000000" stroke="none" 
	d="
M394.727722,134.814178 
	C393.760620,134.880829 393.111298,134.406464 393.184723,133.026474 
	C394.101898,133.002411 394.759918,133.479355 394.727722,134.814178 
z"/>
<path fill="#C1FEFE" opacity="1.000000" stroke="none" 
	d="
M387.165955,115.766632 
	C387.027283,115.529228 387.192230,115.300087 387.621002,115.026932 
	C387.837860,115.280540 387.699432,115.544533 387.165955,115.766632 
z"/>
<path fill="#C1FEFE" opacity="1.000000" stroke="none" 
	d="
M392.620911,129.849457 
	C392.386108,129.941193 392.210541,129.770004 391.999695,129.387405 
	C392.261108,129.181213 392.499664,129.318085 392.620911,129.849457 
z"/>
<path fill="#EFFEFE" opacity="1.000000" stroke="none" 
	d="
M151.837341,146.773163 
	C145.545074,158.191757 135.670975,163.136673 123.492599,163.787628 
	C115.857887,164.195709 108.183258,163.798279 100.529739,163.937805 
	C96.634567,164.008804 94.889801,162.796326 94.919846,158.481033 
	C95.091324,133.850281 95.068130,109.217407 94.940765,84.586136 
	C94.920158,80.600861 95.977364,78.798607 100.287140,79.039864 
	C109.243881,79.541260 118.234825,78.535713 127.198517,79.697861 
	C139.267700,81.262642 148.200180,87.697151 153.081696,98.422607 
	C160.333115,114.355080 160.150787,130.623764 151.837341,146.773163 
z"/>
<path fill="#EFFEFD" opacity="1.000000" stroke="none" 
	d="
M231.827835,152.724091 
	C221.365829,164.664032 208.704208,168.052307 194.169281,163.176819 
	C185.598343,160.301880 179.395203,153.927032 175.930862,145.752884 
	C168.922028,129.215485 168.686508,112.451103 176.796478,96.104401 
	C183.313187,82.969101 194.229980,76.933983 208.773560,77.942398 
	C222.498718,78.894066 231.170471,86.575142 236.329803,99.102203 
	C243.989532,117.700279 242.093079,135.359421 231.827835,152.724091 
z"/>
<path fill="#CCFEFE" opacity="1.000000" stroke="none" 
	d="
M243.320175,107.188782 
	C243.738235,107.160080 244.656982,106.838043 244.030731,107.962540 
	C243.552231,107.940315 243.370636,107.720589 243.320175,107.188782 
z"/>
<path fill="#EFFEFE" opacity="1.000000" stroke="none" 
	d="
M711.019287,130.000000 
	C711.018005,139.812622 710.912415,149.126938 711.062805,158.437119 
	C711.130432,162.624939 709.236572,164.056122 705.294800,163.899261 
	C697.237793,163.578674 697.198730,163.616211 697.198181,155.378418 
	C697.196655,131.930557 697.197693,108.482681 697.210815,85.034813 
	C697.211975,82.906975 696.720886,80.082764 699.381897,79.543076 
	C702.872253,78.835190 706.685547,78.162292 710.051758,79.944199 
	C711.655640,80.793259 710.995422,82.985504 710.998901,84.599876 
	C711.031372,99.566528 711.018738,114.533279 711.019287,130.000000 
z"/>
<path fill="#06FCFC" opacity="1.000000" stroke="none" 
	d="
M586.337280,322.292358 
	C586.090393,319.943085 586.066772,317.916260 586.060242,315.455200 
	C587.865540,312.061462 586.657166,308.814514 586.946899,305.347168 
	C586.965576,301.403290 586.207947,297.653839 591.293884,296.312286 
	C592.991150,295.864563 592.862976,293.487244 592.336548,291.478912 
	C591.276978,287.436462 591.875854,284.386261 597.156738,283.785095 
	C600.662231,283.386047 601.372925,280.353790 600.516235,277.289673 
	C599.275269,272.851044 601.195679,271.585938 605.351562,270.775391 
	C610.388367,269.793091 615.206726,270.960236 620.114136,270.879333 
	C623.187866,270.828674 624.448669,271.963318 624.054382,274.958527 
	C623.335693,280.417633 625.272522,284.042236 631.016663,284.970093 
	C633.486389,285.368988 633.031433,287.238556 633.036804,288.820160 
	C633.049683,292.600769 632.319031,296.508087 636.901184,298.647736 
	C638.585388,299.434204 638.143311,301.631775 637.943665,303.239014 
	C636.929260,311.402161 637.276489,319.554047 637.966797,327.708832 
	C638.098389,329.263885 638.041931,330.843597 636.694702,331.801056 
	C633.073303,334.374573 632.678162,338.003784 633.043213,341.971100 
	C633.325928,345.043060 632.547852,346.889435 628.825073,347.170105 
	C622.762451,347.627197 624.447632,352.841034 624.165283,356.394287 
	C623.976807,358.766357 623.991882,359.774353 621.125427,360.365295 
	C615.471375,361.530975 609.858704,361.047638 604.260986,360.905884 
	C599.453979,360.784149 599.452759,356.990997 600.336914,353.566010 
	C600.954834,351.172211 601.307190,348.694702 598.495544,348.443176 
	C591.191223,347.789581 590.887268,343.362579 591.981873,337.414490 
	C593.081848,334.421265 590.317932,334.622742 589.200439,333.257385 
	C588.954895,333.051025 589.000000,333.003143 588.974976,333.023621 
	C585.835510,330.098785 587.744080,326.002594 586.337280,322.292358 
z"/>
<path fill="#16F8F7" opacity="1.000000" stroke="none" 
	d="
M586.076904,322.416321 
	C588.520630,322.437439 587.973572,324.363098 587.966431,325.915436 
	C587.956543,328.076202 588.008057,330.201721 588.918091,332.632812 
	C584.049500,330.773834 586.707825,326.342865 586.076904,322.416321 
z"/>
<path fill="#16F8F7" opacity="1.000000" stroke="none" 
	d="
M586.651245,305.280884 
	C588.546387,308.277008 588.723877,311.559479 586.453674,314.921600 
	C586.177917,311.874298 586.278381,308.727661 586.651245,305.280884 
z"/>
<path fill="#16F8F7" opacity="1.000000" stroke="none" 
	d="
M589.001953,333.369751 
	C593.311707,334.193085 593.657166,334.556702 592.304443,336.953735 
	C591.006775,335.893219 590.027832,334.790833 589.001953,333.369751 
z"/>
<path fill="#56E7E5" opacity="1.000000" stroke="none" 
	d="
M459.816864,167.316620 
	C443.184479,167.826447 426.610321,167.892365 409.580750,167.915558 
	C409.020447,155.067062 408.838226,142.261337 408.829437,129.455490 
	C408.817261,111.655907 408.935120,93.856239 409.076294,75.607986 
	C414.293671,75.135048 419.450378,75.369278 424.564911,75.007423 
	C428.925873,74.698868 430.258087,76.122292 430.205475,80.563148 
	C429.967957,100.621895 430.072510,120.684891 430.106689,140.746277 
	C430.109680,142.509750 429.542725,144.414932 431.179626,146.260101 
	C432.627655,148.520477 434.585175,148.082504 436.352417,148.089218 
	C442.796143,148.113678 449.240479,148.135422 455.683655,148.069138 
	C458.770721,148.037384 460.227386,149.263351 460.092865,152.504807 
	C459.894287,157.288879 459.935822,162.082916 459.816864,167.316620 
z"/>
<path fill="#5DE9E9" opacity="1.000000" stroke="none" 
	d="
M367.303955,115.312439 
	C351.432770,116.890915 351.326874,116.763359 351.245697,101.904610 
	C351.226532,98.399529 350.803101,94.574211 352.392761,91.635284 
	C354.383362,87.955009 358.813324,90.002411 361.968994,89.856354 
	C371.767395,89.402824 376.900482,90.305511 379.509033,97.959877 
	C382.113983,105.603592 378.700439,116.182068 367.303955,115.312439 
z"/>
<path fill="#59E8E6" opacity="1.000000" stroke="none" 
	d="
M351.399963,143.151016 
	C352.364960,138.772537 351.877319,134.770752 351.884399,130.799896 
	C351.889801,127.773293 352.816315,126.078247 356.161957,126.181137 
	C360.642487,126.318939 365.143036,126.035362 369.610504,126.318718 
	C377.621277,126.826797 382.026276,131.986816 381.867859,140.267426 
	C381.718536,148.073196 377.041290,152.739090 368.983459,152.983261 
	C365.499115,153.088821 361.968933,152.649338 358.530090,153.055099 
	C353.728088,153.621689 351.343323,152.064529 351.624542,147.039337 
	C351.688416,145.897537 351.442749,144.738419 351.399963,143.151016 
z"/>
<path fill="#59E8E6" opacity="1.000000" stroke="none" 
	d="
M108.828651,131.999588 
	C108.845398,119.500946 108.972458,107.500664 108.809929,95.504318 
	C108.763123,92.049438 109.778091,90.525612 113.328659,90.883224 
	C115.143845,91.066040 116.999634,91.035599 118.823769,90.909393 
	C132.592789,89.956795 139.287308,97.466270 141.935501,107.113190 
	C144.980698,118.206345 145.304886,129.344620 140.245132,140.237930 
	C135.709671,150.002533 127.526291,152.574738 117.787064,152.795334 
	C108.834396,152.998108 108.835327,153.071198 108.829865,143.998413 
	C108.827560,140.165421 108.829041,136.332443 108.828651,131.999588 
z"/>
<path fill="#5CE9E7" opacity="1.000000" stroke="none" 
	d="
M202.597168,153.626984 
	C194.296310,151.761642 189.916321,145.920395 187.814728,138.976715 
	C183.291824,124.033028 182.878265,109.215630 192.640701,95.680779 
	C197.913864,88.369934 209.076981,86.865059 216.009552,92.576889 
	C222.737000,98.119743 225.526932,105.738892 226.565018,113.927208 
	C227.746017,123.242798 226.999313,132.439651 222.963394,141.225876 
	C218.980820,149.895889 212.544083,154.203598 202.597168,153.626984 
z"/>
<path fill="#42EDEB" opacity="1.000000" stroke="none" 
	d="
M602.748779,345.354980 
	C602.809265,342.059845 603.180786,338.999451 599.538879,337.521271 
	C597.671448,336.763275 598.040161,334.725159 598.030823,333.097870 
	C597.992493,326.445679 597.924622,319.791901 598.029480,313.141235 
	C598.095398,308.960327 597.889038,304.837921 596.495483,300.873505 
	C595.315491,297.516388 596.188782,295.010620 599.375183,293.470886 
	C601.471741,292.457794 602.035400,290.880310 602.114319,288.660858 
	C602.393250,280.815002 606.210999,277.882812 614.090454,279.253662 
	C615.390930,279.479919 616.680969,279.955566 617.979370,279.969055 
	C621.815735,280.009033 623.261169,281.808228 622.999268,285.614105 
	C622.765930,289.005035 622.191406,292.652557 626.092102,294.837189 
	C627.128052,295.417419 626.992554,296.891327 627.002075,298.069092 
	C627.097900,309.889740 628.485657,321.848602 626.590698,333.467377 
	C625.752808,338.604767 621.301941,343.177094 621.958130,349.245331 
	C622.064270,350.226624 620.205200,351.646790 618.593140,351.837494 
	C613.592285,352.429260 608.753113,351.005615 603.843933,350.473358 
	C603.518372,350.438019 603.302917,349.386810 603.000000,348.404572 
	C602.421021,347.308624 602.522888,346.503174 602.748779,345.354980 
z"/>
<path fill="#16F8F7" opacity="1.000000" stroke="none" 
	d="
M602.698975,345.191864 
	C602.954834,345.751160 602.973816,346.501099 602.978271,347.626038 
	C601.945557,347.291199 601.820312,346.410339 602.698975,345.191864 
z"/>
<path fill="#EBFFFE" opacity="1.000000" stroke="none" 
	d="
M441.977966,152.197800 
	C444.800659,152.186310 447.130310,152.162872 449.459961,152.165359 
	C455.065247,152.171371 455.945709,153.139725 456.084015,158.329193 
	C456.215515,163.263550 453.449493,163.981888 449.354675,163.923355 
	C438.873627,163.773483 428.386139,163.780151 417.906281,163.983734 
	C413.730408,164.064850 412.199341,162.188354 412.201233,158.337418 
	C412.213409,133.542496 412.227905,108.747520 412.179962,83.952690 
	C412.172791,80.252602 413.975342,79.098045 417.446686,79.022331 
	C426.082611,78.833961 426.120483,78.765022 426.119080,87.281441 
	C426.115875,106.917664 426.223267,126.555084 426.018005,146.189209 
	C425.970398,150.743500 427.356476,152.646606 432.004700,152.229858 
	C435.140503,151.948685 438.323212,152.190018 441.977966,152.197800 
z"/>
<path fill="#EBFFFE" opacity="1.000000" stroke="none" 
	d="
M363.971985,111.002304 
	C361.085632,110.494965 357.301605,112.430504 356.506104,109.144234 
	C355.484772,104.924995 355.274445,100.307533 356.816772,95.998634 
	C357.234863,94.830597 358.727356,94.851677 359.899078,94.841347 
	C362.381897,94.819458 364.865326,94.792015 367.347748,94.824760 
	C372.994812,94.899239 375.609680,97.209412 375.806122,102.244392 
	C376.024292,107.835838 373.292603,110.687035 367.411682,110.979568 
	C366.420654,111.028862 365.425659,110.998550 363.971985,111.002304 
z"/>
<path fill="#EBFFFE" opacity="1.000000" stroke="none" 
	d="
M357.047485,131.400360 
	C362.349182,129.934509 367.512482,129.842514 372.292358,131.425079 
	C376.029816,132.662521 377.296875,136.218750 377.229370,140.324875 
	C377.166290,144.164108 375.755219,146.620605 372.145325,147.918579 
	C367.782837,149.487152 363.281525,148.836365 358.827271,148.868149 
	C357.039825,148.880920 356.075592,147.738251 356.132416,145.975677 
	C356.285828,141.213760 355.304047,136.399200 357.047485,131.400360 
z"/>
<path fill="#F4FEFE" opacity="1.000000" stroke="none" 
	d="
M112.983368,144.585907 
	C112.960335,129.643616 113.094780,115.159073 112.870979,100.680054 
	C112.803757,96.330490 114.152031,94.869278 118.563164,94.933105 
	C130.281464,95.102661 138.484314,102.324852 139.024170,114.072220 
	C139.365494,121.499962 140.134430,129.027328 137.167923,136.264130 
	C133.649551,144.847168 124.753510,149.790176 115.812424,147.978424 
	C114.066330,147.624634 113.168594,146.763229 112.983368,144.585907 
z"/>
<path fill="#F4FEFE" opacity="1.000000" stroke="none" 
	d="
M189.677032,126.250412 
	C188.287003,117.647881 190.009735,109.892029 193.315460,102.526253 
	C195.649750,97.325020 199.966629,94.205582 205.812408,93.969315 
	C211.415497,93.742867 215.456436,96.872940 217.765381,101.538971 
	C224.723099,115.599609 224.582718,129.793533 216.739944,143.450943 
	C212.354324,151.088074 201.059799,151.056412 195.455139,143.939377 
	C191.447632,138.850433 190.508484,132.810440 189.677032,126.250412 
z"/>
<path fill="#EFFEFE" opacity="1.000000" stroke="none" 
	d="
M609.375427,282.110077 
	C610.328430,282.093475 610.828308,282.095398 611.327759,282.082733 
	C621.692932,281.819946 619.896606,282.372406 619.907227,290.148468 
	C619.910522,292.553040 619.928711,294.870056 622.772339,295.852020 
	C624.961670,296.608032 624.996643,298.441101 624.990173,300.360382 
	C624.956543,310.350952 624.977844,320.341736 624.970520,330.332428 
	C624.969482,331.815552 625.387451,333.911377 623.923950,334.458221 
	C619.242310,336.207642 619.845154,340.017792 619.971558,343.592346 
	C620.106445,347.405212 618.534546,349.210663 614.685486,349.020416 
	C613.190613,348.946564 611.672302,348.876984 610.193115,349.049438 
	C605.958008,349.543243 604.570129,347.660980 604.831482,343.563263 
	C605.045105,340.213837 605.812622,336.362335 601.050659,334.942383 
	C599.509949,334.483002 599.760620,332.753387 599.759399,331.460449 
	C599.749207,320.660431 599.779602,309.860413 599.796387,299.060394 
	C599.798218,297.885620 599.678955,296.414124 600.990906,296.043732 
	C605.739685,294.703003 605.055481,290.910675 604.866272,287.516602 
	C604.691711,284.385101 605.288696,282.212982 609.375427,282.110077 
z"/>
</svg>